<svg width="345" height="227" viewBox="0 0 345 227" fill="none" xmlns="http://www.w3.org/2000/svg">
<path d="M35.04 43.26C35.04 44.7 34.6 45.96 33.72 47.04C32.84 48.12 31.66 49.02 30.18 49.74C28.7 50.42 27.06 50.94 25.26 51.3C23.46 51.66 21.64 51.84 19.8 51.84C14.48 51.84 10.32 49.94 7.32 46.14C4.32 42.34 2.82 36.98 2.82 30.06C2.82 23.14 4.36 17.78 7.44 13.98C10.56 10.18 14.88 8.28 20.4 8.28C22.04 8.28 23.66 8.44 25.26 8.76C26.86 9.08 28.32 9.54 29.64 10.14C30.96 10.74 32.02 11.5 32.82 12.42C33.62 13.3 34.02 14.34 34.02 15.54C34.02 16.74 33.46 17.86 32.34 18.9C31.22 19.9 29.54 20.38 27.3 20.34C27.02 17.14 26.3 14.8 25.14 13.32C24.02 11.84 22.48 11.1 20.52 11.1C17.6 11.1 15.46 12.68 14.1 15.84C12.74 19 12.06 23.74 12.06 30.06C12.06 36.38 12.72 41.12 14.04 44.28C15.36 47.44 17.44 49.02 20.28 49.02C21.68 49.02 22.9 48.66 23.94 47.94C25.02 47.22 25.9 46.12 26.58 44.64C27.26 43.16 27.74 41.3 28.02 39.06C29.14 38.9 30.22 38.96 31.26 39.24C32.34 39.48 33.24 39.94 33.96 40.62C34.68 41.26 35.04 42.14 35.04 43.26ZM65.0513 51.6C62.9713 51.6 61.3313 50.86 60.1313 49.38C58.9713 47.86 58.3913 45.18 58.3913 41.34V39.06L59.8313 39.36C59.4313 41.56 58.6713 43.6 57.5513 45.48C56.4313 47.32 54.9913 48.8 53.2313 49.92C51.4713 51.04 49.3913 51.6 46.9913 51.6C44.7113 51.6 42.8113 51 41.2913 49.8C39.8113 48.6 39.0713 46.84 39.0713 44.52C39.0713 42.6 39.5913 40.98 40.6313 39.66C41.7113 38.3 43.0513 37.2 44.6513 36.36C46.2913 35.52 47.9313 34.86 49.5713 34.38C51.1713 33.94 52.6713 33.64 54.0713 33.48C55.5113 33.28 56.7913 33.16 57.9113 33.12V31.62C57.9113 28.38 57.5513 25.94 56.8313 24.3C56.1113 22.66 54.8113 21.84 52.9313 21.84C52.1713 21.84 51.4713 22 50.8313 22.32C50.2313 22.6 49.7513 23.06 49.3913 23.7C49.0713 24.34 48.9113 25.2 48.9113 26.28C48.9113 27.08 49.0513 27.9 49.3313 28.74C49.6113 29.58 50.1713 30.24 51.0113 30.72C50.5313 31.2 49.8913 31.56 49.0913 31.8C48.3313 32.04 47.5113 32.16 46.6313 32.16C44.6713 32.16 43.1513 31.62 42.0713 30.54C41.0313 29.46 40.5113 28.14 40.5113 26.58C40.5113 24.18 41.6713 22.34 43.9913 21.06C46.3513 19.78 49.4913 19.14 53.4113 19.14C57.8913 19.14 61.1713 20.14 63.2513 22.14C65.3313 24.14 66.3713 27.48 66.3713 32.16V42.3C66.3713 44.42 67.0313 45.48 68.3513 45.48C68.5513 45.48 68.8113 45.42 69.1313 45.3C69.4913 45.18 69.7713 44.98 69.9713 44.7C70.2513 45.1 70.4513 45.54 70.5713 46.02C70.6913 46.5 70.7513 46.92 70.7513 47.28C70.7513 48.44 70.2313 49.46 69.1913 50.34C68.1913 51.18 66.8113 51.6 65.0513 51.6ZM51.3113 46.26C52.0713 46.18 52.8513 45.88 53.6513 45.36C54.4513 44.8 55.1913 44.06 55.8713 43.14C56.5513 42.18 57.0913 41.08 57.4913 39.84C57.9313 38.6 58.1513 37.24 58.1513 35.76C57.3913 35.76 56.6113 35.8 55.8113 35.88C55.0113 35.92 54.2313 36.04 53.4713 36.24C52.7513 36.44 52.0713 36.72 51.4313 37.08C50.4713 37.6 49.6713 38.34 49.0313 39.3C48.4313 40.22 48.1313 41.28 48.1313 42.48C48.1313 43.48 48.3713 44.4 48.8513 45.24C49.3713 46.04 50.1913 46.38 51.3113 46.26ZM92.8069 19.14C94.8069 19.14 96.4869 19.54 97.8469 20.34C99.2469 21.14 100.367 22.24 101.207 23.64C102.047 25.04 102.647 26.66 103.007 28.5C103.407 30.34 103.607 32.3 103.607 34.38C103.607 40.1 102.427 44.44 100.067 47.4C97.7069 50.36 94.5469 51.84 90.5869 51.84C88.8669 51.84 87.3869 51.54 86.1469 50.94C84.9069 50.34 84.0069 49.48 83.4469 48.36V50.76C83.4469 51.64 83.4669 52.74 83.5069 54.06C83.5869 55.38 83.7269 56.76 83.9269 58.2C84.1269 59.68 84.4069 61.08 84.7669 62.4C84.4069 62.72 83.8069 63.1 82.9669 63.54C82.1669 63.98 81.1869 64.2 80.0269 64.2C78.7069 64.2 77.5869 63.82 76.6669 63.06C75.7469 62.34 75.2869 61.32 75.2869 60L75.3469 28.68C75.3469 27.6 75.2269 26.82 74.9869 26.34C74.7469 25.82 74.3469 25.56 73.7869 25.56C73.5869 25.56 73.3269 25.6 73.0069 25.68C72.6869 25.76 72.4269 25.94 72.2269 26.22C71.9469 25.78 71.7469 25.34 71.6269 24.9C71.5069 24.42 71.4469 24 71.4469 23.64C71.4469 22.4 71.9069 21.4 72.8269 20.64C73.7469 19.84 74.9469 19.44 76.4269 19.44C78.7069 19.44 80.3669 20.44 81.4069 22.44C82.4469 24.4 82.9669 27.06 82.9669 30.42V33.18L81.7069 32.58C81.9869 30.3 82.4269 28.32 83.0269 26.64C83.6269 24.92 84.3869 23.52 85.3069 22.44C86.2669 21.32 87.3669 20.5 88.6069 19.98C89.8469 19.42 91.2469 19.14 92.8069 19.14ZM90.2869 23.52C89.0869 23.52 88.0669 23.96 87.2269 24.84C86.3869 25.72 85.6869 26.9 85.1269 28.38C84.6069 29.86 84.2069 31.5 83.9269 33.3C83.6869 35.06 83.5669 36.82 83.5669 38.58C83.5669 40.14 83.6469 41.5 83.8069 42.66C84.0069 43.78 84.2869 44.72 84.6469 45.48C85.0469 46.2 85.5669 46.74 86.2069 47.1C86.8469 47.46 87.6069 47.64 88.4869 47.64C90.7669 47.64 92.3869 46.48 93.3469 44.16C94.3069 41.84 94.7869 38.56 94.7869 34.32C94.7869 32.64 94.7069 31.14 94.5469 29.82C94.4269 28.46 94.2069 27.32 93.8869 26.4C93.5669 25.48 93.1069 24.78 92.5069 24.3C91.9469 23.78 91.2069 23.52 90.2869 23.52ZM127.905 19.14C129.905 19.14 131.585 19.54 132.945 20.34C134.345 21.14 135.465 22.24 136.305 23.64C137.145 25.04 137.745 26.66 138.105 28.5C138.505 30.34 138.705 32.3 138.705 34.38C138.705 40.1 137.525 44.44 135.165 47.4C132.805 50.36 129.645 51.84 125.685 51.84C123.965 51.84 122.485 51.54 121.245 50.94C120.005 50.34 119.105 49.48 118.545 48.36V50.76C118.545 51.64 118.565 52.74 118.605 54.06C118.685 55.38 118.825 56.76 119.025 58.2C119.225 59.68 119.505 61.08 119.865 62.4C119.505 62.72 118.905 63.1 118.065 63.54C117.265 63.98 116.285 64.2 115.125 64.2C113.805 64.2 112.685 63.82 111.765 63.06C110.845 62.34 110.385 61.32 110.385 60L110.445 28.68C110.445 27.6 110.325 26.82 110.085 26.34C109.845 25.82 109.445 25.56 108.885 25.56C108.685 25.56 108.425 25.6 108.105 25.68C107.785 25.76 107.525 25.94 107.325 26.22C107.045 25.78 106.845 25.34 106.725 24.9C106.605 24.42 106.545 24 106.545 23.64C106.545 22.4 107.005 21.4 107.925 20.64C108.845 19.84 110.045 19.44 111.525 19.44C113.805 19.44 115.465 20.44 116.505 22.44C117.545 24.4 118.065 27.06 118.065 30.42V33.18L116.805 32.58C117.085 30.3 117.525 28.32 118.125 26.64C118.725 24.92 119.485 23.52 120.405 22.44C121.365 21.32 122.465 20.5 123.705 19.98C124.945 19.42 126.345 19.14 127.905 19.14ZM125.385 23.52C124.185 23.52 123.165 23.96 122.325 24.84C121.485 25.72 120.785 26.9 120.225 28.38C119.705 29.86 119.305 31.5 119.025 33.3C118.785 35.06 118.665 36.82 118.665 38.58C118.665 40.14 118.745 41.5 118.905 42.66C119.105 43.78 119.385 44.72 119.745 45.48C120.145 46.2 120.665 46.74 121.305 47.1C121.945 47.46 122.705 47.64 123.585 47.64C125.865 47.64 127.485 46.48 128.445 44.16C129.405 41.84 129.885 38.56 129.885 34.32C129.885 32.64 129.805 31.14 129.645 29.82C129.525 28.46 129.305 27.32 128.985 26.4C128.665 25.48 128.205 24.78 127.605 24.3C127.045 23.78 126.305 23.52 125.385 23.52ZM168.528 51.6C166.448 51.6 164.808 50.86 163.608 49.38C162.448 47.86 161.868 45.18 161.868 41.34V39.06L163.308 39.36C162.908 41.56 162.148 43.6 161.028 45.48C159.908 47.32 158.468 48.8 156.708 49.92C154.948 51.04 152.868 51.6 150.468 51.6C148.188 51.6 146.288 51 144.768 49.8C143.288 48.6 142.548 46.84 142.548 44.52C142.548 42.6 143.068 40.98 144.108 39.66C145.188 38.3 146.528 37.2 148.128 36.36C149.768 35.52 151.408 34.86 153.048 34.38C154.648 33.94 156.148 33.64 157.548 33.48C158.988 33.28 160.268 33.16 161.388 33.12V31.62C161.388 28.38 161.028 25.94 160.308 24.3C159.588 22.66 158.288 21.84 156.408 21.84C155.648 21.84 154.948 22 154.308 22.32C153.708 22.6 153.228 23.06 152.868 23.7C152.548 24.34 152.388 25.2 152.388 26.28C152.388 27.08 152.528 27.9 152.808 28.74C153.088 29.58 153.648 30.24 154.488 30.72C154.008 31.2 153.368 31.56 152.568 31.8C151.808 32.04 150.988 32.16 150.108 32.16C148.148 32.16 146.628 31.62 145.548 30.54C144.508 29.46 143.988 28.14 143.988 26.58C143.988 24.18 145.148 22.34 147.468 21.06C149.828 19.78 152.968 19.14 156.888 19.14C161.368 19.14 164.648 20.14 166.728 22.14C168.808 24.14 169.848 27.48 169.848 32.16V42.3C169.848 44.42 170.508 45.48 171.828 45.48C172.028 45.48 172.288 45.42 172.608 45.3C172.968 45.18 173.248 44.98 173.448 44.7C173.728 45.1 173.928 45.54 174.048 46.02C174.168 46.5 174.228 46.92 174.228 47.28C174.228 48.44 173.708 49.46 172.668 50.34C171.668 51.18 170.288 51.6 168.528 51.6ZM154.788 46.26C155.548 46.18 156.328 45.88 157.128 45.36C157.928 44.8 158.668 44.06 159.348 43.14C160.028 42.18 160.568 41.08 160.968 39.84C161.408 38.6 161.628 37.24 161.628 35.76C160.868 35.76 160.088 35.8 159.288 35.88C158.488 35.92 157.708 36.04 156.948 36.24C156.228 36.44 155.548 36.72 154.908 37.08C153.948 37.6 153.148 38.34 152.508 39.3C151.908 40.22 151.608 41.28 151.608 42.48C151.608 43.48 151.848 44.4 152.328 45.24C152.848 46.04 153.668 46.38 154.788 46.26ZM187.329 51.84C185.409 51.84 183.769 51.48 182.409 50.76C181.089 50 179.989 48.94 179.109 47.58C178.269 46.18 177.649 44.56 177.249 42.72C176.849 40.84 176.649 38.8 176.649 36.6C176.649 31 177.749 26.7 179.949 23.7C182.189 20.66 185.369 19.14 189.489 19.14C191.329 19.14 192.849 19.44 194.049 20.04C195.289 20.64 196.189 21.52 196.749 22.68V20.22C196.749 18.82 196.669 17.08 196.509 15C196.349 12.92 195.969 10.86 195.369 8.82C195.729 8.5 196.309 8.12 197.109 7.68C197.949 7.24 198.949 7.02 200.109 7.02C201.429 7.02 202.549 7.4 203.469 8.16C204.389 8.88 204.849 9.92 204.849 11.28L204.789 42.3C204.789 43.34 204.969 44.12 205.329 44.64C205.689 45.16 206.189 45.42 206.829 45.42C207.029 45.42 207.289 45.38 207.609 45.3C207.969 45.22 208.229 45.04 208.389 44.76C208.669 45.16 208.869 45.6 208.989 46.08C209.109 46.56 209.169 46.98 209.169 47.34C209.169 48.58 208.649 49.6 207.609 50.4C206.609 51.16 205.349 51.54 203.829 51.54C201.509 51.54 199.809 50.56 198.729 48.6C197.689 46.6 197.169 43.92 197.169 40.56V37.8L198.429 38.46C198.149 40.74 197.709 42.72 197.109 44.4C196.509 46.08 195.729 47.48 194.769 48.6C193.849 49.68 192.769 50.48 191.529 51C190.289 51.56 188.889 51.84 187.329 51.84ZM189.849 47.4C191.049 47.4 192.069 46.96 192.909 46.08C193.749 45.16 194.429 43.94 194.949 42.42C195.509 40.9 195.909 39.2 196.149 37.32C196.429 35.44 196.569 33.52 196.569 31.56C196.569 30.48 196.509 29.44 196.389 28.44C196.269 27.44 196.029 26.56 195.669 25.8C195.349 25 194.849 24.38 194.169 23.94C193.529 23.46 192.669 23.22 191.589 23.22C189.349 23.22 187.769 24.38 186.849 26.7C185.929 29.02 185.469 32.26 185.469 36.42C185.469 38.26 185.529 39.88 185.649 41.28C185.809 42.64 186.049 43.78 186.369 44.7C186.729 45.58 187.189 46.26 187.749 46.74C188.309 47.18 189.009 47.4 189.849 47.4ZM226.626 51.84C221.946 51.84 218.306 50.4 215.706 47.52C213.106 44.64 211.806 40.64 211.806 35.52C211.806 30.36 213.106 26.34 215.706 23.46C218.306 20.58 221.946 19.14 226.626 19.14C231.306 19.14 234.946 20.58 237.546 23.46C240.146 26.34 241.446 30.36 241.446 35.52C241.446 40.64 240.146 44.64 237.546 47.52C234.946 50.4 231.306 51.84 226.626 51.84ZM226.626 49.08C228.666 49.08 230.166 47.94 231.126 45.66C232.086 43.38 232.566 40 232.566 35.52C232.566 31 232.086 27.6 231.126 25.32C230.166 23.04 228.666 21.9 226.626 21.9C224.546 21.9 223.026 23.04 222.066 25.32C221.106 27.6 220.626 31 220.626 35.52C220.626 40 221.106 43.38 222.066 45.66C223.026 47.94 224.546 49.08 226.626 49.08ZM260.737 51.84C255.857 51.84 252.097 50.42 249.457 47.58C246.817 44.7 245.497 40.64 245.497 35.4C245.497 30.36 246.817 26.4 249.457 23.52C252.137 20.6 255.957 19.14 260.917 19.14C264.717 19.14 267.517 19.9 269.317 21.42C271.117 22.94 272.017 24.74 272.017 26.82C272.017 28.46 271.477 29.76 270.397 30.72C269.357 31.68 268.017 32.16 266.377 32.16C265.577 32.16 264.777 32.04 263.977 31.8C263.177 31.56 262.557 31.2 262.117 30.72C262.677 30.16 263.097 29.52 263.377 28.8C263.657 28.04 263.797 27.14 263.797 26.1C263.797 25.06 263.637 24.24 263.317 23.64C263.037 23 262.637 22.56 262.117 22.32C261.597 22.04 260.977 21.9 260.257 21.9C258.417 21.9 256.957 22.96 255.877 25.08C254.837 27.2 254.317 30.2 254.317 34.08C254.317 37.04 254.657 39.46 255.337 41.34C256.057 43.18 257.077 44.54 258.397 45.42C259.757 46.3 261.377 46.74 263.257 46.74C264.697 46.74 265.957 46.5 267.037 46.02C268.157 45.54 269.077 44.9 269.797 44.1C270.517 43.26 271.017 42.34 271.297 41.34C271.737 41.5 272.037 41.88 272.197 42.48C272.397 43.04 272.357 43.9 272.077 45.06C271.517 47.18 270.217 48.84 268.177 50.04C266.137 51.24 263.657 51.84 260.737 51.84ZM282.379 16.44C281.059 16.44 279.939 16 279.019 15.12C278.139 14.2 277.699 13.1 277.699 11.82C277.699 10.5 278.139 9.4 279.019 8.52C279.939 7.6 281.059 7.14 282.379 7.14C283.659 7.14 284.739 7.6 285.619 8.52C286.539 9.4 286.999 10.5 286.999 11.82C286.999 13.1 286.539 14.2 285.619 15.12C284.739 16 283.659 16.44 282.379 16.44ZM286.759 42.24C286.759 43.36 286.819 44.62 286.939 46.02C287.099 47.38 287.439 48.72 287.959 50.04C287.599 50.36 286.999 50.74 286.159 51.18C285.359 51.66 284.379 51.9 283.219 51.9C281.939 51.9 280.839 51.52 279.919 50.76C279.039 50 278.599 48.96 278.599 47.64V28.74C278.599 27.58 278.519 26.32 278.359 24.96C278.239 23.6 277.919 22.24 277.399 20.88C277.759 20.56 278.339 20.18 279.139 19.74C279.939 19.3 280.899 19.08 282.019 19.08C283.379 19.08 284.499 19.46 285.379 20.22C286.259 20.94 286.699 21.98 286.699 23.34L286.759 42.24ZM318.704 51.6C316.624 51.6 314.984 50.86 313.784 49.38C312.624 47.86 312.044 45.18 312.044 41.34V39.06L313.484 39.36C313.084 41.56 312.324 43.6 311.204 45.48C310.084 47.32 308.644 48.8 306.884 49.92C305.124 51.04 303.044 51.6 300.644 51.6C298.364 51.6 296.464 51 294.944 49.8C293.464 48.6 292.724 46.84 292.724 44.52C292.724 42.6 293.244 40.98 294.284 39.66C295.364 38.3 296.704 37.2 298.304 36.36C299.944 35.52 301.584 34.86 303.224 34.38C304.824 33.94 306.324 33.64 307.724 33.48C309.164 33.28 310.444 33.16 311.564 33.12V31.62C311.564 28.38 311.204 25.94 310.484 24.3C309.764 22.66 308.464 21.84 306.584 21.84C305.824 21.84 305.124 22 304.484 22.32C303.884 22.6 303.404 23.06 303.044 23.7C302.724 24.34 302.564 25.2 302.564 26.28C302.564 27.08 302.704 27.9 302.984 28.74C303.264 29.58 303.824 30.24 304.664 30.72C304.184 31.2 303.544 31.56 302.744 31.8C301.984 32.04 301.164 32.16 300.284 32.16C298.324 32.16 296.804 31.62 295.724 30.54C294.684 29.46 294.164 28.14 294.164 26.58C294.164 24.18 295.324 22.34 297.644 21.06C300.004 19.78 303.144 19.14 307.064 19.14C311.544 19.14 314.824 20.14 316.904 22.14C318.984 24.14 320.024 27.48 320.024 32.16V42.3C320.024 44.42 320.684 45.48 322.004 45.48C322.204 45.48 322.464 45.42 322.784 45.3C323.144 45.18 323.424 44.98 323.624 44.7C323.904 45.1 324.104 45.54 324.224 46.02C324.344 46.5 324.404 46.92 324.404 47.28C324.404 48.44 323.884 49.46 322.844 50.34C321.844 51.18 320.464 51.6 318.704 51.6ZM304.964 46.26C305.724 46.18 306.504 45.88 307.304 45.36C308.104 44.8 308.844 44.06 309.524 43.14C310.204 42.18 310.744 41.08 311.144 39.84C311.584 38.6 311.804 37.24 311.804 35.76C311.044 35.76 310.264 35.8 309.464 35.88C308.664 35.92 307.884 36.04 307.124 36.24C306.404 36.44 305.724 36.72 305.084 37.08C304.124 37.6 303.324 38.34 302.684 39.3C302.084 40.22 301.784 41.28 301.784 42.48C301.784 43.48 302.024 44.4 302.504 45.24C303.024 46.04 303.844 46.38 304.964 46.26Z" fill="#54370D"/>
<path d="M10.724 113.46H5.32V122H2.632V102.96H12.908L13.3 105.032H5.32V111.416H10.388L10.724 113.46ZM15.7979 122V108.42H17.3099L18.1779 110.352C18.7006 109.904 19.3539 109.475 20.1379 109.064C20.9406 108.635 21.7059 108.42 22.4339 108.42L23.0219 110.576C22.2752 110.576 21.4912 110.781 20.6699 111.192C19.8672 111.584 19.1392 112.097 18.4859 112.732V122H15.7979ZM30.8302 122.364C28.7769 122.345 27.2182 121.673 26.1542 120.348C25.0902 119.004 24.5582 117.277 24.5582 115.168C24.5769 113.077 25.1555 111.379 26.2942 110.072C27.4329 108.747 29.0289 108.075 31.0822 108.056C33.2102 108.056 34.8155 108.737 35.8982 110.1C36.9995 111.444 37.5502 113.18 37.5502 115.308C37.5502 117.417 36.9529 119.116 35.7582 120.404C34.5635 121.692 32.9209 122.345 30.8302 122.364ZM34.8342 115.308C34.8342 113.852 34.5449 112.667 33.9662 111.752C33.3875 110.819 32.4542 110.352 31.1662 110.352C29.8782 110.352 28.9169 110.791 28.2822 111.668C27.6475 112.527 27.3209 113.684 27.3022 115.14C27.3022 116.652 27.5729 117.856 28.1142 118.752C28.6742 119.629 29.5982 120.068 30.8862 120.068C32.1555 120.068 33.1262 119.648 33.7982 118.808C34.4702 117.968 34.8155 116.801 34.8342 115.308ZM51.7628 110.184C52.3415 109.549 53.0788 109.027 53.9748 108.616C54.8895 108.187 55.7481 107.972 56.5508 107.972C58.2121 107.972 59.4161 108.457 60.1628 109.428C60.9281 110.38 61.3108 111.584 61.3108 113.04V122H58.5948V113.292C58.5948 112.377 58.3708 111.649 57.9228 111.108C57.4935 110.567 56.8401 110.287 55.9628 110.268C55.3841 110.268 54.7681 110.427 54.1148 110.744C53.4615 111.061 52.8641 111.481 52.3228 112.004C52.3415 112.191 52.3508 112.368 52.3508 112.536C52.3695 112.685 52.3788 112.853 52.3788 113.04V122H49.6628V113.292C49.6628 112.377 49.4481 111.649 49.0188 111.108C48.5895 110.567 47.9455 110.287 47.0868 110.268C46.5268 110.268 45.9388 110.408 45.3228 110.688C44.7068 110.968 44.1375 111.369 43.6148 111.892V122H40.9268V108.42H42.4388L43.1668 109.876C43.7641 109.316 44.4735 108.859 45.2948 108.504C46.1348 108.149 46.9188 107.972 47.6468 107.972C48.6735 107.972 49.5228 108.177 50.1948 108.588C50.8855 108.98 51.4081 109.512 51.7628 110.184ZM79.6366 111.276C79.1139 111.033 78.5633 110.819 77.9846 110.632C77.4246 110.445 76.7806 110.352 76.0526 110.352C75.3433 110.352 74.7739 110.501 74.3446 110.8C73.9339 111.08 73.7286 111.463 73.7286 111.948C73.7473 112.359 73.9899 112.723 74.4566 113.04C74.9419 113.339 75.5953 113.628 76.4166 113.908C77.5366 114.319 78.5819 114.879 79.5526 115.588C80.5233 116.279 81.0086 117.184 81.0086 118.304C81.0086 119.573 80.5326 120.572 79.5806 121.3C78.6473 122.009 77.2846 122.364 75.4926 122.364C74.9139 122.364 74.1673 122.261 73.2526 122.056C72.3379 121.851 71.5913 121.543 71.0126 121.132L71.8526 119.144C72.4313 119.424 73.0286 119.648 73.6446 119.816C74.2606 119.984 74.8766 120.068 75.4926 120.068C76.3886 120.068 77.0793 119.928 77.5646 119.648C78.0686 119.368 78.3206 118.967 78.3206 118.444C78.3206 117.921 78.0499 117.473 77.5086 117.1C76.9859 116.708 76.2859 116.372 75.4086 116.092C74.3446 115.737 73.3366 115.243 72.3846 114.608C71.4326 113.973 70.9566 113.105 70.9566 112.004C70.9566 110.772 71.4139 109.811 72.3286 109.12C73.2619 108.411 74.5219 108.056 76.1086 108.056C76.6873 108.056 77.4153 108.168 78.2926 108.392C79.1699 108.616 79.8979 108.933 80.4766 109.344L79.6366 111.276ZM93.284 120.572C92.6866 121.132 91.968 121.589 91.128 121.944C90.3066 122.28 89.532 122.448 88.804 122.448C87.1426 122.448 85.9293 121.972 85.164 121.02C84.4173 120.049 84.044 118.836 84.044 117.38V108.42H86.76V117.184C86.76 118.061 86.9746 118.78 87.404 119.34C87.852 119.881 88.5053 120.152 89.364 120.152C89.868 120.152 90.4466 120.021 91.1 119.76C91.7533 119.48 92.36 119.107 92.92 118.64V108.42H95.608V122H94.068L93.284 120.572ZM102.041 110.212C102.619 109.577 103.366 109.045 104.281 108.616C105.195 108.187 106.045 107.972 106.829 107.972C108.49 107.972 109.694 108.457 110.441 109.428C111.206 110.38 111.589 111.584 111.589 113.04V122H108.901V113.292C108.901 112.377 108.677 111.649 108.229 111.108C107.799 110.567 107.146 110.287 106.269 110.268C105.709 110.268 105.055 110.445 104.309 110.8C103.562 111.155 102.918 111.621 102.377 112.2V122H99.6885V108.42H101.201L102.041 110.212ZM115.548 122V108.42H117.06L117.928 110.352C118.451 109.904 119.104 109.475 119.888 109.064C120.691 108.635 121.456 108.42 122.184 108.42L122.772 110.576C122.025 110.576 121.241 110.781 120.42 111.192C119.617 111.584 118.889 112.097 118.236 112.732V122H115.548ZM126.408 105.984C125.942 105.984 125.55 105.825 125.232 105.508C124.915 105.172 124.756 104.771 124.756 104.304C124.738 103.837 124.887 103.445 125.204 103.128C125.54 102.792 125.942 102.624 126.408 102.624C126.875 102.624 127.276 102.792 127.612 103.128C127.948 103.445 128.116 103.837 128.116 104.304C128.116 104.771 127.948 105.172 127.612 105.508C127.276 105.825 126.875 105.984 126.408 105.984ZM125.064 122V108.42H127.78V122H125.064ZM139.656 111.276C139.133 111.033 138.583 110.819 138.004 110.632C137.444 110.445 136.8 110.352 136.072 110.352C135.363 110.352 134.793 110.501 134.364 110.8C133.953 111.08 133.748 111.463 133.748 111.948C133.767 112.359 134.009 112.723 134.476 113.04C134.961 113.339 135.615 113.628 136.436 113.908C137.556 114.319 138.601 114.879 139.572 115.588C140.543 116.279 141.028 117.184 141.028 118.304C141.028 119.573 140.552 120.572 139.6 121.3C138.667 122.009 137.304 122.364 135.512 122.364C134.933 122.364 134.187 122.261 133.272 122.056C132.357 121.851 131.611 121.543 131.032 121.132L131.872 119.144C132.451 119.424 133.048 119.648 133.664 119.816C134.28 119.984 134.896 120.068 135.512 120.068C136.408 120.068 137.099 119.928 137.584 119.648C138.088 119.368 138.34 118.967 138.34 118.444C138.34 117.921 138.069 117.473 137.528 117.1C137.005 116.708 136.305 116.372 135.428 116.092C134.364 115.737 133.356 115.243 132.404 114.608C131.452 113.973 130.976 113.105 130.976 112.004C130.976 110.772 131.433 109.811 132.348 109.12C133.281 108.411 134.541 108.056 136.128 108.056C136.707 108.056 137.435 108.168 138.312 108.392C139.189 108.616 139.917 108.933 140.496 109.344L139.656 111.276ZM155.936 115.812H146.303C146.397 117.063 146.789 118.089 147.48 118.892C148.17 119.695 149.206 120.096 150.588 120.096C151.39 120.096 152.062 120.012 152.604 119.844C153.164 119.657 153.724 119.433 154.284 119.172L155.124 121.132C154.526 121.543 153.761 121.841 152.828 122.028C151.913 122.233 151.166 122.336 150.588 122.336C148.31 122.336 146.556 121.683 145.324 120.376C144.11 119.051 143.504 117.324 143.504 115.196C143.504 113.087 144.073 111.369 145.212 110.044C146.369 108.719 147.965 108.056 150 108.056C152.202 108.056 153.742 108.831 154.62 110.38C155.497 111.929 155.936 113.74 155.936 115.812ZM153.332 113.992C153.164 112.872 152.809 111.985 152.268 111.332C151.726 110.679 150.942 110.352 149.916 110.352C148.87 110.352 148.049 110.688 147.452 111.36C146.854 112.013 146.49 112.891 146.36 113.992H153.332ZM165.862 122V102.54L168.55 102.232V109.204C169.092 108.849 169.68 108.56 170.314 108.336C170.949 108.093 171.546 107.972 172.106 107.972C174.104 107.972 175.606 108.663 176.614 110.044C177.622 111.407 178.126 113.115 178.126 115.168C178.126 117.221 177.613 118.929 176.586 120.292C175.578 121.655 174.085 122.336 172.106 122.336C171.472 122.336 170.781 122.205 170.034 121.944C169.288 121.664 168.616 121.291 168.018 120.824L167.374 122H165.862ZM168.55 118.864C169.017 119.237 169.521 119.536 170.062 119.76C170.604 119.965 171.108 120.068 171.574 120.068C172.974 120.068 173.954 119.583 174.514 118.612C175.093 117.623 175.382 116.484 175.382 115.196C175.382 113.833 175.112 112.676 174.57 111.724C174.029 110.753 173.03 110.268 171.574 110.268C171.108 110.268 170.604 110.38 170.062 110.604C169.521 110.809 169.017 111.108 168.55 111.5V118.864ZM183.238 118.08C183.238 118.603 183.424 119.088 183.798 119.536C184.171 119.984 184.74 120.208 185.506 120.208C186.196 120.208 186.84 120.04 187.438 119.704C188.054 119.368 188.595 118.939 189.062 118.416V115.672H185.758C184.936 115.672 184.311 115.915 183.882 116.4C183.452 116.885 183.238 117.445 183.238 118.08ZM181.642 109.26C182.164 108.905 182.92 108.616 183.91 108.392C184.899 108.168 185.683 108.056 186.262 108.056C187.83 108.056 189.136 108.495 190.182 109.372C191.227 110.249 191.75 111.388 191.75 112.788V122H190.238C190.107 121.795 189.986 121.58 189.874 121.356C189.762 121.132 189.65 120.917 189.538 120.712C189.071 121.123 188.474 121.496 187.746 121.832C187.018 122.168 186.29 122.336 185.562 122.336C183.956 122.336 182.762 121.935 181.978 121.132C181.212 120.329 180.83 119.312 180.83 118.08C180.83 116.717 181.287 115.681 182.202 114.972C183.135 114.244 184.339 113.88 185.814 113.88H189.034C189.034 112.947 188.847 112.144 188.474 111.472C188.1 110.8 187.382 110.464 186.318 110.464C185.515 110.464 184.787 110.567 184.134 110.772C183.48 110.959 182.902 111.164 182.398 111.388L181.642 109.26ZM195.776 122V102.54L198.464 102.232V122H195.776ZM202.722 122V102.54L205.41 102.232V122H202.722ZM215.127 122.364C213.074 122.345 211.515 121.673 210.451 120.348C209.387 119.004 208.855 117.277 208.855 115.168C208.874 113.077 209.452 111.379 210.591 110.072C211.73 108.747 213.326 108.075 215.379 108.056C217.507 108.056 219.112 108.737 220.195 110.1C221.296 111.444 221.847 113.18 221.847 115.308C221.847 117.417 221.25 119.116 220.055 120.404C218.86 121.692 217.218 122.345 215.127 122.364ZM219.131 115.308C219.131 113.852 218.842 112.667 218.263 111.752C217.684 110.819 216.751 110.352 215.463 110.352C214.175 110.352 213.214 110.791 212.579 111.668C211.944 112.527 211.618 113.684 211.599 115.14C211.599 116.652 211.87 117.856 212.411 118.752C212.971 119.629 213.895 120.068 215.183 120.068C216.452 120.068 217.423 119.648 218.095 118.808C218.767 117.968 219.112 116.801 219.131 115.308ZM230.768 122.364C228.714 122.345 227.156 121.673 226.092 120.348C225.028 119.004 224.496 117.277 224.496 115.168C224.514 113.077 225.093 111.379 226.232 110.072C227.37 108.747 228.966 108.075 231.02 108.056C233.148 108.056 234.753 108.737 235.836 110.1C236.937 111.444 237.488 113.18 237.488 115.308C237.488 117.417 236.89 119.116 235.696 120.404C234.501 121.692 232.858 122.345 230.768 122.364ZM234.772 115.308C234.772 113.852 234.482 112.667 233.904 111.752C233.325 110.819 232.392 110.352 231.104 110.352C229.816 110.352 228.854 110.791 228.22 111.668C227.585 112.527 227.258 113.684 227.24 115.14C227.24 116.652 227.51 117.856 228.052 118.752C228.612 119.629 229.536 120.068 230.824 120.068C232.093 120.068 233.064 119.648 233.736 118.808C234.408 117.968 234.753 116.801 234.772 115.308ZM243.216 110.212C243.795 109.577 244.542 109.045 245.456 108.616C246.371 108.187 247.22 107.972 248.004 107.972C249.666 107.972 250.87 108.457 251.616 109.428C252.382 110.38 252.764 111.584 252.764 113.04V122H250.076V113.292C250.076 112.377 249.852 111.649 249.404 111.108C248.975 110.567 248.322 110.287 247.444 110.268C246.884 110.268 246.231 110.445 245.484 110.8C244.738 111.155 244.094 111.621 243.552 112.2V122H240.864V108.42H242.376L243.216 110.212ZM264.508 111.276C263.985 111.033 263.434 110.819 262.856 110.632C262.296 110.445 261.652 110.352 260.924 110.352C260.214 110.352 259.645 110.501 259.216 110.8C258.805 111.08 258.6 111.463 258.6 111.948C258.618 112.359 258.861 112.723 259.328 113.04C259.813 113.339 260.466 113.628 261.288 113.908C262.408 114.319 263.453 114.879 264.424 115.588C265.394 116.279 265.88 117.184 265.88 118.304C265.88 119.573 265.404 120.572 264.452 121.3C263.518 122.009 262.156 122.364 260.364 122.364C259.785 122.364 259.038 122.261 258.124 122.056C257.209 121.851 256.462 121.543 255.884 121.132L256.724 119.144C257.302 119.424 257.9 119.648 258.516 119.816C259.132 119.984 259.748 120.068 260.364 120.068C261.26 120.068 261.95 119.928 262.436 119.648C262.94 119.368 263.192 118.967 263.192 118.444C263.192 117.921 262.921 117.473 262.38 117.1C261.857 116.708 261.157 116.372 260.28 116.092C259.216 115.737 258.208 115.243 257.256 114.608C256.304 113.973 255.828 113.105 255.828 112.004C255.828 110.772 256.285 109.811 257.2 109.12C258.133 108.411 259.393 108.056 260.98 108.056C261.558 108.056 262.286 108.168 263.164 108.392C264.041 108.616 264.769 108.933 265.348 109.344L264.508 111.276ZM282.588 121.888C282.346 122.019 282 122.149 281.552 122.28C281.123 122.411 280.703 122.476 280.292 122.476C278.967 122.476 277.912 122.112 277.128 121.384C276.344 120.656 275.952 119.601 275.952 118.22V110.632H274.048L274.02 108.588H275.952V105.2L278.64 104.584V108.588H281.104L281.944 110.632H278.64V117.8C278.64 118.491 278.79 119.06 279.088 119.508C279.406 119.937 279.9 120.152 280.572 120.152C280.796 120.152 281.02 120.124 281.244 120.068C281.487 119.993 281.702 119.919 281.888 119.844L282.588 121.888ZM290.76 122.364C288.707 122.345 287.148 121.673 286.084 120.348C285.02 119.004 284.488 117.277 284.488 115.168C284.507 113.077 285.085 111.379 286.224 110.072C287.363 108.747 288.959 108.075 291.012 108.056C293.14 108.056 294.745 108.737 295.828 110.1C296.929 111.444 297.48 113.18 297.48 115.308C297.48 117.417 296.883 119.116 295.688 120.404C294.493 121.692 292.851 122.345 290.76 122.364ZM294.764 115.308C294.764 113.852 294.475 112.667 293.896 111.752C293.317 110.819 292.384 110.352 291.096 110.352C289.808 110.352 288.847 110.791 288.212 111.668C287.577 112.527 287.251 113.684 287.232 115.14C287.232 116.652 287.503 117.856 288.044 118.752C288.604 119.629 289.528 120.068 290.816 120.068C292.085 120.068 293.056 119.648 293.728 118.808C294.4 117.968 294.745 116.801 294.764 115.308ZM4.816 140.904C5.39467 140.344 6.09467 139.887 6.916 139.532C7.756 139.159 8.54 138.972 9.268 138.972C10.9293 138.972 12.1333 139.457 12.88 140.428C13.6453 141.38 14.028 142.584 14.028 144.04V153H11.34V144.292C11.34 143.377 11.116 142.649 10.668 142.108C10.2387 141.567 9.576 141.287 8.68 141.268C8.12 141.268 7.46667 141.445 6.72 141.8C5.992 142.155 5.35733 142.621 4.816 143.2V153H2.128V133.54L4.816 133.232V140.904ZM19.3301 136.984C18.8634 136.984 18.4714 136.825 18.1541 136.508C17.8367 136.172 17.6781 135.771 17.6781 135.304C17.6594 134.837 17.8087 134.445 18.1261 134.128C18.4621 133.792 18.8634 133.624 19.3301 133.624C19.7967 133.624 20.1981 133.792 20.5341 134.128C20.8701 134.445 21.0381 134.837 21.0381 135.304C21.0381 135.771 20.8701 136.172 20.5341 136.508C20.1981 136.825 19.7967 136.984 19.3301 136.984ZM17.9861 153V139.42H20.7021V153H17.9861ZM30.618 141.268C29.218 141.268 28.2287 141.763 27.65 142.752C27.09 143.741 26.81 144.88 26.81 146.168C26.81 147.531 27.0807 148.688 27.622 149.64C28.1633 150.592 29.162 151.068 30.618 151.068C31.122 151.068 31.6447 150.956 32.186 150.732C32.746 150.489 33.278 150.163 33.782 149.752V142.584C33.278 142.173 32.746 141.856 32.186 141.632C31.6447 141.389 31.122 141.268 30.618 141.268ZM36.498 133.26V153H34.958L34.23 151.74C33.6513 152.244 32.97 152.645 32.186 152.944C31.4207 153.224 30.7113 153.364 30.058 153.364C28.0793 153.364 26.586 152.683 25.578 151.32C24.57 149.957 24.066 148.249 24.066 146.196C24.066 144.124 24.5793 142.407 25.606 141.044C26.6513 139.663 28.1633 138.972 30.142 138.972C30.702 138.972 31.3087 139.093 31.962 139.336C32.6153 139.56 33.222 139.859 33.782 140.232V133.54L36.498 133.26ZM46.5047 141.268C45.1047 141.268 44.1154 141.763 43.5367 142.752C42.9767 143.741 42.6967 144.88 42.6967 146.168C42.6967 147.531 42.9674 148.688 43.5087 149.64C44.0501 150.592 45.0487 151.068 46.5047 151.068C47.0087 151.068 47.5314 150.956 48.0727 150.732C48.6327 150.489 49.1647 150.163 49.6687 149.752V142.584C49.1647 142.173 48.6327 141.856 48.0727 141.632C47.5314 141.389 47.0087 141.268 46.5047 141.268ZM52.3847 133.26V153H50.8447L50.1167 151.74C49.5381 152.244 48.8567 152.645 48.0727 152.944C47.3074 153.224 46.5981 153.364 45.9447 153.364C43.9661 153.364 42.4727 152.683 41.4647 151.32C40.4567 149.957 39.9527 148.249 39.9527 146.196C39.9527 144.124 40.4661 142.407 41.4927 141.044C42.5381 139.663 44.0501 138.972 46.0287 138.972C46.5887 138.972 47.1954 139.093 47.8487 139.336C48.5021 139.56 49.1087 139.859 49.6687 140.232V133.54L52.3847 133.26ZM68.2714 146.812H58.6394C58.7328 148.063 59.1248 149.089 59.8154 149.892C60.5061 150.695 61.5421 151.096 62.9234 151.096C63.7261 151.096 64.3981 151.012 64.9394 150.844C65.4994 150.657 66.0594 150.433 66.6194 150.172L67.4594 152.132C66.8621 152.543 66.0968 152.841 65.1634 153.028C64.2488 153.233 63.5021 153.336 62.9234 153.336C60.6461 153.336 58.8914 152.683 57.6594 151.376C56.4461 150.051 55.8394 148.324 55.8394 146.196C55.8394 144.087 56.4088 142.369 57.5474 141.044C58.7048 139.719 60.3008 139.056 62.3354 139.056C64.5381 139.056 66.0781 139.831 66.9554 141.38C67.8328 142.929 68.2714 144.74 68.2714 146.812ZM65.6674 144.992C65.4994 143.872 65.1448 142.985 64.6034 142.332C64.0621 141.679 63.2781 141.352 62.2514 141.352C61.2061 141.352 60.3848 141.688 59.7874 142.36C59.1901 143.013 58.8261 143.891 58.6954 144.992H65.6674ZM73.8491 141.212C74.4278 140.577 75.1745 140.045 76.0891 139.616C77.0038 139.187 77.8531 138.972 78.6371 138.972C80.2985 138.972 81.5025 139.457 82.2491 140.428C83.0145 141.38 83.3971 142.584 83.3971 144.04V153H80.7091V144.292C80.7091 143.377 80.4851 142.649 80.0371 142.108C79.6078 141.567 78.9545 141.287 78.0771 141.268C77.5171 141.268 76.8638 141.445 76.1171 141.8C75.3705 142.155 74.7265 142.621 74.1851 143.2V153H71.4971V139.42H73.0091L73.8491 141.212ZM99.7977 141.352C98.5284 141.352 97.5764 141.819 96.9417 142.752C96.3257 143.667 96.0084 144.805 95.9897 146.168C95.9897 147.587 96.2884 148.763 96.8857 149.696C97.483 150.611 98.4257 151.068 99.7137 151.068C100.535 151.068 101.179 150.984 101.646 150.816C102.131 150.648 102.663 150.424 103.242 150.144L104.054 152.076C103.456 152.487 102.728 152.804 101.87 153.028C101.011 153.252 100.292 153.364 99.7137 153.364C97.623 153.364 96.0177 152.701 94.8977 151.376C93.7964 150.051 93.2457 148.324 93.2457 146.196C93.2644 144.087 93.8337 142.369 94.9537 141.044C96.0924 139.719 97.7164 139.056 99.8257 139.056C100.386 139.056 101.086 139.177 101.926 139.42C102.784 139.644 103.512 139.961 104.11 140.372L103.326 142.276C102.747 142.033 102.215 141.819 101.73 141.632C101.244 141.445 100.6 141.352 99.7977 141.352ZM108.999 149.08C108.999 149.603 109.186 150.088 109.559 150.536C109.933 150.984 110.502 151.208 111.267 151.208C111.958 151.208 112.602 151.04 113.199 150.704C113.815 150.368 114.357 149.939 114.823 149.416V146.672H111.519C110.698 146.672 110.073 146.915 109.643 147.4C109.214 147.885 108.999 148.445 108.999 149.08ZM107.403 140.26C107.926 139.905 108.682 139.616 109.671 139.392C110.661 139.168 111.445 139.056 112.023 139.056C113.591 139.056 114.898 139.495 115.943 140.372C116.989 141.249 117.511 142.388 117.511 143.788V153H115.999C115.869 152.795 115.747 152.58 115.635 152.356C115.523 152.132 115.411 151.917 115.299 151.712C114.833 152.123 114.235 152.496 113.507 152.832C112.779 153.168 112.051 153.336 111.323 153.336C109.718 153.336 108.523 152.935 107.739 152.132C106.974 151.329 106.591 150.312 106.591 149.08C106.591 147.717 107.049 146.681 107.963 145.972C108.897 145.244 110.101 144.88 111.575 144.88H114.795C114.795 143.947 114.609 143.144 114.235 142.472C113.862 141.8 113.143 141.464 112.079 141.464C111.277 141.464 110.549 141.567 109.895 141.772C109.242 141.959 108.663 142.164 108.159 142.388L107.403 140.26ZM124.982 153L119.774 139.812L122.518 139.42L126.27 149.22L129.854 139.42H132.626L127.474 153H124.982ZM146.721 146.812H137.089C137.182 148.063 137.574 149.089 138.265 149.892C138.955 150.695 139.991 151.096 141.373 151.096C142.175 151.096 142.847 151.012 143.389 150.844C143.949 150.657 144.509 150.433 145.069 150.172L145.909 152.132C145.311 152.543 144.546 152.841 143.613 153.028C142.698 153.233 141.951 153.336 141.373 153.336C139.095 153.336 137.341 152.683 136.109 151.376C134.895 150.051 134.289 148.324 134.289 146.196C134.289 144.087 134.858 142.369 135.997 141.044C137.154 139.719 138.75 139.056 140.785 139.056C142.987 139.056 144.527 139.831 145.405 141.38C146.282 142.929 146.721 144.74 146.721 146.812ZM144.117 144.992C143.949 143.872 143.594 142.985 143.053 142.332C142.511 141.679 141.727 141.352 140.701 141.352C139.655 141.352 138.834 141.688 138.237 142.36C137.639 143.013 137.275 143.891 137.145 144.992H144.117ZM162.388 141.268C160.988 141.268 159.998 141.763 159.42 142.752C158.86 143.741 158.58 144.88 158.58 146.168C158.58 147.531 158.85 148.688 159.392 149.64C159.933 150.592 160.932 151.068 162.388 151.068C162.892 151.068 163.414 150.956 163.956 150.732C164.516 150.489 165.048 150.163 165.552 149.752V142.584C165.048 142.173 164.516 141.856 163.956 141.632C163.414 141.389 162.892 141.268 162.388 141.268ZM168.268 133.26V153H166.728L166 151.74C165.421 152.244 164.74 152.645 163.956 152.944C163.19 153.224 162.481 153.364 161.828 153.364C159.849 153.364 158.356 152.683 157.348 151.32C156.34 149.957 155.836 148.249 155.836 146.196C155.836 144.124 156.349 142.407 157.376 141.044C158.421 139.663 159.933 138.972 161.912 138.972C162.472 138.972 163.078 139.093 163.732 139.336C164.385 139.56 164.992 139.859 165.552 140.232V133.54L168.268 133.26ZM184.182 153L180.906 143.34L177.798 153H175.334L170.77 139.812L173.514 139.42L176.594 148.996L179.534 139.42H182.362L185.442 148.996L188.382 139.42H191.154L186.646 153H184.182ZM205.264 146.812H195.632C195.725 148.063 196.117 149.089 196.808 149.892C197.498 150.695 198.534 151.096 199.916 151.096C200.718 151.096 201.39 151.012 201.932 150.844C202.492 150.657 203.052 150.433 203.612 150.172L204.452 152.132C203.854 152.543 203.089 152.841 202.156 153.028C201.241 153.233 200.494 153.336 199.916 153.336C197.638 153.336 195.884 152.683 194.652 151.376C193.438 150.051 192.832 148.324 192.832 146.196C192.832 144.087 193.401 142.369 194.54 141.044C195.697 139.719 197.293 139.056 199.328 139.056C201.53 139.056 203.07 139.831 203.948 141.38C204.825 142.929 205.264 144.74 205.264 146.812ZM202.66 144.992C202.492 143.872 202.137 142.985 201.596 142.332C201.054 141.679 200.27 141.352 199.244 141.352C198.198 141.352 197.377 141.688 196.78 142.36C196.182 143.013 195.818 143.891 195.688 144.992H202.66ZM208.573 153V133.54L211.261 133.232V153H208.573ZM215.519 153V133.54L218.207 133.232V153H215.519ZM223.752 136.984C223.285 136.984 222.893 136.825 222.576 136.508C222.259 136.172 222.1 135.771 222.1 135.304C222.081 134.837 222.231 134.445 222.548 134.128C222.884 133.792 223.285 133.624 223.752 133.624C224.219 133.624 224.62 133.792 224.956 134.128C225.292 134.445 225.46 134.837 225.46 135.304C225.46 135.771 225.292 136.172 224.956 136.508C224.62 136.825 224.219 136.984 223.752 136.984ZM222.408 153V139.42H225.124V153H222.408ZM231.568 141.212C232.147 140.577 232.893 140.045 233.808 139.616C234.723 139.187 235.572 138.972 236.356 138.972C238.017 138.972 239.221 139.457 239.968 140.428C240.733 141.38 241.116 142.584 241.116 144.04V153H238.428V144.292C238.428 143.377 238.204 142.649 237.756 142.108C237.327 141.567 236.673 141.287 235.796 141.268C235.236 141.268 234.583 141.445 233.836 141.8C233.089 142.155 232.445 142.621 231.904 143.2V153H229.216V139.42H230.728L231.568 141.212ZM254.063 142.584C253.559 142.173 253.027 141.856 252.467 141.632C251.926 141.389 251.403 141.268 250.899 141.268C249.499 141.268 248.51 141.763 247.931 142.752C247.371 143.741 247.091 144.88 247.091 146.168C247.091 147.531 247.362 148.688 247.903 149.64C248.445 150.592 249.443 151.068 250.899 151.068C251.403 151.068 251.926 150.956 252.467 150.732C253.027 150.489 253.559 150.163 254.063 149.752V142.584ZM256.779 153.728C256.779 155.221 256.266 156.463 255.239 157.452C254.213 158.46 252.654 158.964 250.563 158.964C249.985 158.964 249.191 158.843 248.183 158.6C247.194 158.376 246.382 158.049 245.747 157.62C245.878 157.303 246.009 156.976 246.139 156.64C246.289 156.323 246.429 156.005 246.559 155.688C247.213 155.987 247.819 156.239 248.379 156.444C248.958 156.668 249.658 156.78 250.479 156.78C251.599 156.78 252.477 156.519 253.111 155.996C253.746 155.473 254.063 154.708 254.063 153.7V152.076C253.503 152.468 252.887 152.776 252.215 153C251.543 153.224 250.918 153.336 250.339 153.336C248.361 153.336 246.867 152.664 245.859 151.32C244.851 149.957 244.347 148.249 244.347 146.196C244.347 144.124 244.861 142.407 245.887 141.044C246.933 139.663 248.445 138.972 250.423 138.972C251.077 138.972 251.786 139.131 252.551 139.448C253.335 139.747 254.017 140.139 254.595 140.624L255.239 139.42H256.779V153.728ZM268.746 142.276C268.223 142.033 267.673 141.819 267.094 141.632C266.534 141.445 265.89 141.352 265.162 141.352C264.453 141.352 263.883 141.501 263.454 141.8C263.043 142.08 262.838 142.463 262.838 142.948C262.857 143.359 263.099 143.723 263.566 144.04C264.051 144.339 264.705 144.628 265.526 144.908C266.646 145.319 267.691 145.879 268.662 146.588C269.633 147.279 270.118 148.184 270.118 149.304C270.118 150.573 269.642 151.572 268.69 152.3C267.757 153.009 266.394 153.364 264.602 153.364C264.023 153.364 263.277 153.261 262.362 153.056C261.447 152.851 260.701 152.543 260.122 152.132L260.962 150.144C261.541 150.424 262.138 150.648 262.754 150.816C263.37 150.984 263.986 151.068 264.602 151.068C265.498 151.068 266.189 150.928 266.674 150.648C267.178 150.368 267.43 149.967 267.43 149.444C267.43 148.921 267.159 148.473 266.618 148.1C266.095 147.708 265.395 147.372 264.518 147.092C263.454 146.737 262.446 146.243 261.494 145.608C260.542 144.973 260.066 144.105 260.066 143.004C260.066 141.772 260.523 140.811 261.438 140.12C262.371 139.411 263.631 139.056 265.218 139.056C265.797 139.056 266.525 139.168 267.402 139.392C268.279 139.616 269.007 139.933 269.586 140.344L268.746 142.276ZM273.685 149.64C274.171 149.64 274.581 149.827 274.917 150.2C275.253 150.555 275.421 151.04 275.421 151.656C275.421 152.589 275.123 153.541 274.525 154.512C273.928 155.483 273.181 156.201 272.285 156.668L271.641 155.408C272.108 155.053 272.491 154.699 272.789 154.344C273.107 153.989 273.303 153.541 273.377 153C273.041 152.981 272.724 152.804 272.425 152.468C272.145 152.113 272.005 151.731 272.005 151.32C272.005 150.891 272.164 150.508 272.481 150.172C272.817 149.817 273.219 149.64 273.685 149.64ZM13.748 177.812H4.116C4.20933 179.063 4.60133 180.089 5.292 180.892C5.98267 181.695 7.01867 182.096 8.4 182.096C9.20267 182.096 9.87467 182.012 10.416 181.844C10.976 181.657 11.536 181.433 12.096 181.172L12.936 183.132C12.3387 183.543 11.5733 183.841 10.64 184.028C9.72533 184.233 8.97867 184.336 8.4 184.336C6.12267 184.336 4.368 183.683 3.136 182.376C1.92267 181.051 1.316 179.324 1.316 177.196C1.316 175.087 1.88533 173.369 3.024 172.044C4.18133 170.719 5.77733 170.056 7.812 170.056C10.0147 170.056 11.5547 170.831 12.432 172.38C13.3093 173.929 13.748 175.74 13.748 177.812ZM11.144 175.992C10.976 174.872 10.6213 173.985 10.08 173.332C9.53867 172.679 8.75467 172.352 7.728 172.352C6.68267 172.352 5.86133 172.688 5.264 173.36C4.66667 174.013 4.30267 174.891 4.172 175.992H11.144ZM20.5017 184L15.2937 170.812L18.0377 170.42L21.7897 180.22L25.3737 170.42H28.1457L22.9937 184H20.5017ZM42.2402 177.812H32.6082C32.7015 179.063 33.0935 180.089 33.7842 180.892C34.4749 181.695 35.5109 182.096 36.8922 182.096C37.6949 182.096 38.3669 182.012 38.9082 181.844C39.4682 181.657 40.0282 181.433 40.5882 181.172L41.4282 183.132C40.8309 183.543 40.0655 183.841 39.1322 184.028C38.2175 184.233 37.4709 184.336 36.8922 184.336C34.6149 184.336 32.8602 183.683 31.6282 182.376C30.4149 181.051 29.8082 179.324 29.8082 177.196C29.8082 175.087 30.3775 173.369 31.5162 172.044C32.6735 170.719 34.2695 170.056 36.3042 170.056C38.5069 170.056 40.0469 170.831 40.9242 172.38C41.8015 173.929 42.2402 175.74 42.2402 177.812ZM39.6362 175.992C39.4682 174.872 39.1135 173.985 38.5722 173.332C38.0309 172.679 37.2469 172.352 36.2202 172.352C35.1749 172.352 34.3535 172.688 33.7562 173.36C33.1589 174.013 32.7949 174.891 32.6642 175.992H39.6362ZM45.4659 184V170.42H46.9779L47.8459 172.352C48.3685 171.904 49.0219 171.475 49.8059 171.064C50.6085 170.635 51.3739 170.42 52.1019 170.42L52.6899 172.576C51.9432 172.576 51.1592 172.781 50.3379 173.192C49.5352 173.584 48.8072 174.097 48.1539 174.732V184H45.4659ZM57.6142 185.708L58.3982 183.636L53.2742 170.812L55.9902 170.42L59.7702 180.164L63.3542 170.42H66.1262L61.5622 182.376L60.1062 186.464C59.7515 187.397 59.1355 188.191 58.2582 188.844C57.3995 189.497 56.4475 189.945 55.4022 190.188L54.5062 188.116C55.1782 187.817 55.8035 187.5 56.3822 187.164C56.9608 186.828 57.3715 186.343 57.6142 185.708ZM85.9698 172.184C86.5485 171.549 87.2858 171.027 88.1818 170.616C89.0965 170.187 89.9552 169.972 90.7578 169.972C92.4192 169.972 93.6232 170.457 94.3698 171.428C95.1352 172.38 95.5178 173.584 95.5178 175.04V184H92.8018V175.292C92.8018 174.377 92.5778 173.649 92.1298 173.108C91.7005 172.567 91.0472 172.287 90.1698 172.268C89.5912 172.268 88.9752 172.427 88.3218 172.744C87.6685 173.061 87.0712 173.481 86.5298 174.004C86.5485 174.191 86.5578 174.368 86.5578 174.536C86.5765 174.685 86.5858 174.853 86.5858 175.04V184H83.8698V175.292C83.8698 174.377 83.6552 173.649 83.2258 173.108C82.7965 172.567 82.1525 172.287 81.2938 172.268C80.7338 172.268 80.1458 172.408 79.5298 172.688C78.9138 172.968 78.3445 173.369 77.8218 173.892V184H75.1338V170.42H76.6458L77.3738 171.876C77.9712 171.316 78.6805 170.859 79.5018 170.504C80.3418 170.149 81.1258 169.972 81.8538 169.972C82.8805 169.972 83.7298 170.177 84.4018 170.588C85.0925 170.98 85.6152 171.512 85.9698 172.184ZM104.986 184.364C102.933 184.345 101.374 183.673 100.31 182.348C99.2464 181.004 98.7144 179.277 98.7144 177.168C98.7331 175.077 99.3118 173.379 100.45 172.072C101.589 170.747 103.185 170.075 105.238 170.056C107.366 170.056 108.972 170.737 110.054 172.1C111.156 173.444 111.706 175.18 111.706 177.308C111.706 179.417 111.109 181.116 109.914 182.404C108.72 183.692 107.077 184.345 104.986 184.364ZM108.99 177.308C108.99 175.852 108.701 174.667 108.122 173.752C107.544 172.819 106.61 172.352 105.322 172.352C104.034 172.352 103.073 172.791 102.438 173.668C101.804 174.527 101.477 175.684 101.458 177.14C101.458 178.652 101.729 179.856 102.27 180.752C102.83 181.629 103.754 182.068 105.042 182.068C106.312 182.068 107.282 181.648 107.954 180.808C108.626 179.968 108.972 178.801 108.99 177.308ZM125.919 172.184C126.498 171.549 127.235 171.027 128.131 170.616C129.046 170.187 129.904 169.972 130.707 169.972C132.368 169.972 133.572 170.457 134.319 171.428C135.084 172.38 135.467 173.584 135.467 175.04V184H132.751V175.292C132.751 174.377 132.527 173.649 132.079 173.108C131.65 172.567 130.996 172.287 130.119 172.268C129.54 172.268 128.924 172.427 128.271 172.744C127.618 173.061 127.02 173.481 126.479 174.004C126.498 174.191 126.507 174.368 126.507 174.536C126.526 174.685 126.535 174.853 126.535 175.04V184H123.819V175.292C123.819 174.377 123.604 173.649 123.175 173.108C122.746 172.567 122.102 172.287 121.243 172.268C120.683 172.268 120.095 172.408 119.479 172.688C118.863 172.968 118.294 173.369 117.771 173.892V184H115.083V170.42H116.595L117.323 171.876C117.92 171.316 118.63 170.859 119.451 170.504C120.291 170.149 121.075 169.972 121.803 169.972C122.83 169.972 123.679 170.177 124.351 170.588C125.042 170.98 125.564 171.512 125.919 172.184ZM151.096 177.812H141.464C141.557 179.063 141.949 180.089 142.64 180.892C143.33 181.695 144.366 182.096 145.748 182.096C146.55 182.096 147.222 182.012 147.764 181.844C148.324 181.657 148.884 181.433 149.444 181.172L150.284 183.132C149.686 183.543 148.921 183.841 147.988 184.028C147.073 184.233 146.326 184.336 145.748 184.336C143.47 184.336 141.716 183.683 140.484 182.376C139.27 181.051 138.664 179.324 138.664 177.196C138.664 175.087 139.233 173.369 140.372 172.044C141.529 170.719 143.125 170.056 145.16 170.056C147.362 170.056 148.902 170.831 149.78 172.38C150.657 173.929 151.096 175.74 151.096 177.812ZM148.492 175.992C148.324 174.872 147.969 173.985 147.428 173.332C146.886 172.679 146.102 172.352 145.076 172.352C144.03 172.352 143.209 172.688 142.612 173.36C142.014 174.013 141.65 174.891 141.52 175.992H148.492ZM156.673 172.212C157.252 171.577 157.999 171.045 158.913 170.616C159.828 170.187 160.677 169.972 161.461 169.972C163.123 169.972 164.327 170.457 165.073 171.428C165.839 172.38 166.221 173.584 166.221 175.04V184H163.533V175.292C163.533 174.377 163.309 173.649 162.861 173.108C162.432 172.567 161.779 172.287 160.901 172.268C160.341 172.268 159.688 172.445 158.941 172.8C158.195 173.155 157.551 173.621 157.009 174.2V184H154.321V170.42H155.833L156.673 172.212ZM177.069 183.888C176.826 184.019 176.481 184.149 176.033 184.28C175.603 184.411 175.183 184.476 174.773 184.476C173.447 184.476 172.393 184.112 171.609 183.384C170.825 182.656 170.433 181.601 170.433 180.22V172.632H168.529L168.501 170.588H170.433V167.2L173.121 166.584V170.588H175.585L176.425 172.632H173.121V179.8C173.121 180.491 173.27 181.06 173.569 181.508C173.886 181.937 174.381 182.152 175.053 182.152C175.277 182.152 175.501 182.124 175.725 182.068C175.967 181.993 176.182 181.919 176.369 181.844L177.069 183.888ZM186.706 168.824C186.706 167.461 187.088 166.379 187.854 165.576C188.619 164.755 189.674 164.344 191.018 164.344C191.428 164.344 191.848 164.409 192.278 164.54C192.707 164.671 193.043 164.811 193.286 164.96L192.614 167.032C192.427 166.957 192.203 166.892 191.942 166.836C191.699 166.761 191.475 166.724 191.27 166.724C190.598 166.724 190.112 166.948 189.814 167.396C189.534 167.825 189.394 168.385 189.394 169.076V170.7H191.914L192.782 172.772H189.394V184H186.706V172.772H184.662L184.634 170.7H186.706V168.824ZM207.26 177.812H197.628C197.721 179.063 198.113 180.089 198.804 180.892C199.494 181.695 200.53 182.096 201.912 182.096C202.714 182.096 203.386 182.012 203.928 181.844C204.488 181.657 205.048 181.433 205.608 181.172L206.448 183.132C205.85 183.543 205.085 183.841 204.152 184.028C203.237 184.233 202.49 184.336 201.912 184.336C199.634 184.336 197.88 183.683 196.648 182.376C195.434 181.051 194.828 179.324 194.828 177.196C194.828 175.087 195.397 173.369 196.536 172.044C197.693 170.719 199.289 170.056 201.324 170.056C203.526 170.056 205.066 170.831 205.944 172.38C206.821 173.929 207.26 175.74 207.26 177.812ZM204.656 175.992C204.488 174.872 204.133 173.985 203.592 173.332C203.05 172.679 202.266 172.352 201.24 172.352C200.194 172.352 199.373 172.688 198.776 173.36C198.178 174.013 197.814 174.891 197.684 175.992H204.656ZM222.189 177.812H212.557C212.651 179.063 213.043 180.089 213.733 180.892C214.424 181.695 215.46 182.096 216.841 182.096C217.644 182.096 218.316 182.012 218.857 181.844C219.417 181.657 219.977 181.433 220.537 181.172L221.377 183.132C220.78 183.543 220.015 183.841 219.081 184.028C218.167 184.233 217.42 184.336 216.841 184.336C214.564 184.336 212.809 183.683 211.577 182.376C210.364 181.051 209.757 179.324 209.757 177.196C209.757 175.087 210.327 173.369 211.465 172.044C212.623 170.719 214.219 170.056 216.253 170.056C218.456 170.056 219.996 170.831 220.873 172.38C221.751 173.929 222.189 175.74 222.189 177.812ZM219.585 175.992C219.417 174.872 219.063 173.985 218.521 173.332C217.98 172.679 217.196 172.352 216.169 172.352C215.124 172.352 214.303 172.688 213.705 173.36C213.108 174.013 212.744 174.891 212.613 175.992H219.585ZM225.499 184V164.54L228.187 164.232V184H225.499ZM240.144 173.276C239.622 173.033 239.071 172.819 238.492 172.632C237.932 172.445 237.288 172.352 236.56 172.352C235.851 172.352 235.282 172.501 234.852 172.8C234.442 173.08 234.236 173.463 234.236 173.948C234.255 174.359 234.498 174.723 234.964 175.04C235.45 175.339 236.103 175.628 236.924 175.908C238.044 176.319 239.09 176.879 240.06 177.588C241.031 178.279 241.516 179.184 241.516 180.304C241.516 181.573 241.04 182.572 240.088 183.3C239.155 184.009 237.792 184.364 236 184.364C235.422 184.364 234.675 184.261 233.76 184.056C232.846 183.851 232.099 183.543 231.52 183.132L232.36 181.144C232.939 181.424 233.536 181.648 234.152 181.816C234.768 181.984 235.384 182.068 236 182.068C236.896 182.068 237.587 181.928 238.072 181.648C238.576 181.368 238.828 180.967 238.828 180.444C238.828 179.921 238.558 179.473 238.016 179.1C237.494 178.708 236.794 178.372 235.916 178.092C234.852 177.737 233.844 177.243 232.892 176.608C231.94 175.973 231.464 175.105 231.464 174.004C231.464 172.772 231.922 171.811 232.836 171.12C233.77 170.411 235.03 170.056 236.616 170.056C237.195 170.056 237.923 170.168 238.8 170.392C239.678 170.616 240.406 170.933 240.984 171.344L240.144 173.276ZM260.409 182.572C259.812 183.132 259.093 183.589 258.253 183.944C257.432 184.28 256.657 184.448 255.929 184.448C254.268 184.448 253.054 183.972 252.289 183.02C251.542 182.049 251.169 180.836 251.169 179.38V170.42H253.885V179.184C253.885 180.061 254.1 180.78 254.529 181.34C254.977 181.881 255.63 182.152 256.489 182.152C256.993 182.152 257.572 182.021 258.225 181.76C258.878 181.48 259.485 181.107 260.045 180.64V170.42H262.733V184H261.193L260.409 182.572ZM269.166 172.212C269.744 171.577 270.491 171.045 271.406 170.616C272.32 170.187 273.17 169.972 273.954 169.972C275.615 169.972 276.819 170.457 277.566 171.428C278.331 172.38 278.714 173.584 278.714 175.04V184H276.026V175.292C276.026 174.377 275.802 173.649 275.354 173.108C274.924 172.567 274.271 172.287 273.394 172.268C272.834 172.268 272.18 172.445 271.434 172.8C270.687 173.155 270.043 173.621 269.502 174.2V184H266.814V170.42H268.326L269.166 172.212ZM282.673 184V170.42H284.185L285.053 172.352C285.576 171.904 286.229 171.475 287.013 171.064C287.816 170.635 288.581 170.42 289.309 170.42L289.897 172.576C289.15 172.576 288.366 172.781 287.545 173.192C286.742 173.584 286.014 174.097 285.361 174.732V184H282.673ZM303.865 177.812H294.233C294.327 179.063 294.719 180.089 295.409 180.892C296.1 181.695 297.136 182.096 298.517 182.096C299.32 182.096 299.992 182.012 300.533 181.844C301.093 181.657 301.653 181.433 302.213 181.172L303.053 183.132C302.456 183.543 301.691 183.841 300.757 184.028C299.843 184.233 299.096 184.336 298.517 184.336C296.24 184.336 294.485 183.683 293.253 182.376C292.04 181.051 291.433 179.324 291.433 177.196C291.433 175.087 292.003 173.369 293.141 172.044C294.299 170.719 295.895 170.056 297.929 170.056C300.132 170.056 301.672 170.831 302.549 172.38C303.427 173.929 303.865 175.74 303.865 177.812ZM301.261 175.992C301.093 174.872 300.739 173.985 300.197 173.332C299.656 172.679 298.872 172.352 297.845 172.352C296.8 172.352 295.979 172.688 295.381 173.36C294.784 174.013 294.42 174.891 294.289 175.992H301.261ZM308.855 180.08C308.855 180.603 309.042 181.088 309.415 181.536C309.788 181.984 310.358 182.208 311.123 182.208C311.814 182.208 312.458 182.04 313.055 181.704C313.671 181.368 314.212 180.939 314.679 180.416V177.672H311.375C310.554 177.672 309.928 177.915 309.499 178.4C309.07 178.885 308.855 179.445 308.855 180.08ZM307.259 171.26C307.782 170.905 308.538 170.616 309.527 170.392C310.516 170.168 311.3 170.056 311.879 170.056C313.447 170.056 314.754 170.495 315.799 171.372C316.844 172.249 317.367 173.388 317.367 174.788V184H315.855C315.724 183.795 315.603 183.58 315.491 183.356C315.379 183.132 315.267 182.917 315.155 182.712C314.688 183.123 314.091 183.496 313.363 183.832C312.635 184.168 311.907 184.336 311.179 184.336C309.574 184.336 308.379 183.935 307.595 183.132C306.83 182.329 306.447 181.312 306.447 180.08C306.447 178.717 306.904 177.681 307.819 176.972C308.752 176.244 309.956 175.88 311.431 175.88H314.651C314.651 174.947 314.464 174.144 314.091 173.472C313.718 172.8 312.999 172.464 311.935 172.464C311.132 172.464 310.404 172.567 309.751 172.772C309.098 172.959 308.519 173.164 308.015 173.388L307.259 171.26ZM321.394 184V164.54L324.082 164.232V184H321.394ZM3.416 198.984C2.94933 198.984 2.55733 198.825 2.24 198.508C1.92267 198.172 1.764 197.771 1.764 197.304C1.74533 196.837 1.89467 196.445 2.212 196.128C2.548 195.792 2.94933 195.624 3.416 195.624C3.88267 195.624 4.284 195.792 4.62 196.128C4.956 196.445 5.124 196.837 5.124 197.304C5.124 197.771 4.956 198.172 4.62 198.508C4.284 198.825 3.88267 198.984 3.416 198.984ZM2.072 215V201.42H4.788V215H2.072ZM11.2319 203.212C11.8106 202.577 12.5573 202.045 13.4719 201.616C14.3866 201.187 15.2359 200.972 16.0199 200.972C17.6813 200.972 18.8853 201.457 19.6319 202.428C20.3973 203.38 20.7799 204.584 20.7799 206.04V215H18.0919V206.292C18.0919 205.377 17.8679 204.649 17.4199 204.108C16.9906 203.567 16.3373 203.287 15.4599 203.268C14.8999 203.268 14.2466 203.445 13.4999 203.8C12.7533 204.155 12.1093 204.621 11.5679 205.2V215H8.87994V201.42H10.3919L11.2319 203.212ZM38.2445 214.888C38.0018 215.019 37.6565 215.149 37.2085 215.28C36.7792 215.411 36.3592 215.476 35.9485 215.476C34.6232 215.476 33.5685 215.112 32.7845 214.384C32.0005 213.656 31.6085 212.601 31.6085 211.22V203.632H29.7045L29.6765 201.588H31.6085V198.2L34.2965 197.584V201.588H36.7605L37.6005 203.632H34.2965V210.8C34.2965 211.491 34.4458 212.06 34.7445 212.508C35.0618 212.937 35.5565 213.152 36.2285 213.152C36.4525 213.152 36.6765 213.124 36.9005 213.068C37.1432 212.993 37.3578 212.919 37.5445 212.844L38.2445 214.888ZM43.6441 202.904C44.2228 202.344 44.9228 201.887 45.7441 201.532C46.5841 201.159 47.3681 200.972 48.0961 200.972C49.7575 200.972 50.9615 201.457 51.7081 202.428C52.4735 203.38 52.8561 204.584 52.8561 206.04V215H50.1681V206.292C50.1681 205.377 49.9441 204.649 49.4961 204.108C49.0668 203.567 48.4041 203.287 47.5081 203.268C46.9481 203.268 46.2948 203.445 45.5481 203.8C44.8201 204.155 44.1855 204.621 43.6441 205.2V215H40.9561V195.54L43.6441 195.232V202.904ZM68.4902 208.812H58.8582C58.9515 210.063 59.3435 211.089 60.0342 211.892C60.7249 212.695 61.7609 213.096 63.1422 213.096C63.9449 213.096 64.6169 213.012 65.1582 212.844C65.7182 212.657 66.2782 212.433 66.8382 212.172L67.6782 214.132C67.0809 214.543 66.3155 214.841 65.3822 215.028C64.4675 215.233 63.7209 215.336 63.1422 215.336C60.8649 215.336 59.1102 214.683 57.8782 213.376C56.6649 212.051 56.0582 210.324 56.0582 208.196C56.0582 206.087 56.6275 204.369 57.7662 203.044C58.9235 201.719 60.5195 201.056 62.5542 201.056C64.7569 201.056 66.2969 201.831 67.1742 203.38C68.0515 204.929 68.4902 206.74 68.4902 208.812ZM65.8862 206.992C65.7182 205.872 65.3635 204.985 64.8222 204.332C64.2809 203.679 63.4969 203.352 62.4702 203.352C61.4249 203.352 60.6035 203.688 60.0062 204.36C59.4089 205.013 59.0449 205.891 58.9142 206.992H65.8862ZM78.4171 215V195.54L81.1051 195.232V202.204C81.6464 201.849 82.2344 201.56 82.8691 201.336C83.5037 201.093 84.1011 200.972 84.6611 200.972C86.6584 200.972 88.1611 201.663 89.1691 203.044C90.1771 204.407 90.6811 206.115 90.6811 208.168C90.6811 210.221 90.1677 211.929 89.1411 213.292C88.1331 214.655 86.6397 215.336 84.6611 215.336C84.0264 215.336 83.3357 215.205 82.5891 214.944C81.8424 214.664 81.1704 214.291 80.5731 213.824L79.9291 215H78.4171ZM81.1051 211.864C81.5717 212.237 82.0757 212.536 82.6171 212.76C83.1584 212.965 83.6624 213.068 84.1291 213.068C85.5291 213.068 86.5091 212.583 87.0691 211.612C87.6477 210.623 87.9371 209.484 87.9371 208.196C87.9371 206.833 87.6664 205.676 87.1251 204.724C86.5837 203.753 85.5851 203.268 84.1291 203.268C83.6624 203.268 83.1584 203.38 82.6171 203.604C82.0757 203.809 81.5717 204.108 81.1051 204.5V211.864ZM105.732 208.812H96.1004C96.1937 210.063 96.5857 211.089 97.2764 211.892C97.967 212.695 99.003 213.096 100.384 213.096C101.187 213.096 101.859 213.012 102.4 212.844C102.96 212.657 103.52 212.433 104.08 212.172L104.92 214.132C104.323 214.543 103.558 214.841 102.624 215.028C101.71 215.233 100.963 215.336 100.384 215.336C98.107 215.336 96.3524 214.683 95.1204 213.376C93.907 212.051 93.3004 210.324 93.3004 208.196C93.3004 206.087 93.8697 204.369 95.0084 203.044C96.1657 201.719 97.7617 201.056 99.7964 201.056C101.999 201.056 103.539 201.831 104.416 203.38C105.294 204.929 105.732 206.74 105.732 208.812ZM103.128 206.992C102.96 205.872 102.606 204.985 102.064 204.332C101.523 203.679 100.739 203.352 99.7124 203.352C98.667 203.352 97.8457 203.688 97.2484 204.36C96.651 205.013 96.287 205.891 96.1564 206.992H103.128ZM116.742 204.276C116.219 204.033 115.669 203.819 115.09 203.632C114.53 203.445 113.886 203.352 113.158 203.352C112.449 203.352 111.879 203.501 111.45 203.8C111.039 204.08 110.834 204.463 110.834 204.948C110.853 205.359 111.095 205.723 111.562 206.04C112.047 206.339 112.701 206.628 113.522 206.908C114.642 207.319 115.687 207.879 116.658 208.588C117.629 209.279 118.114 210.184 118.114 211.304C118.114 212.573 117.638 213.572 116.686 214.3C115.753 215.009 114.39 215.364 112.598 215.364C112.019 215.364 111.273 215.261 110.358 215.056C109.443 214.851 108.697 214.543 108.118 214.132L108.958 212.144C109.537 212.424 110.134 212.648 110.75 212.816C111.366 212.984 111.982 213.068 112.598 213.068C113.494 213.068 114.185 212.928 114.67 212.648C115.174 212.368 115.426 211.967 115.426 211.444C115.426 210.921 115.155 210.473 114.614 210.1C114.091 209.708 113.391 209.372 112.514 209.092C111.45 208.737 110.442 208.243 109.49 207.608C108.538 206.973 108.062 206.105 108.062 205.004C108.062 203.772 108.519 202.811 109.434 202.12C110.367 201.411 111.627 201.056 113.214 201.056C113.793 201.056 114.521 201.168 115.398 201.392C116.275 201.616 117.003 201.933 117.582 202.344L116.742 204.276ZM128.205 214.888C127.963 215.019 127.617 215.149 127.169 215.28C126.74 215.411 126.32 215.476 125.909 215.476C124.584 215.476 123.529 215.112 122.745 214.384C121.961 213.656 121.569 212.601 121.569 211.22V203.632H119.665L119.637 201.588H121.569V198.2L124.257 197.584V201.588H126.721L127.561 203.632H124.257V210.8C124.257 211.491 124.407 212.06 124.705 212.508C125.023 212.937 125.517 213.152 126.189 213.152C126.413 213.152 126.637 213.124 126.861 213.068C127.104 212.993 127.319 212.919 127.505 212.844L128.205 214.888ZM149.182 215L145.906 205.34L142.798 215H140.334L135.77 201.812L138.514 201.42L141.594 210.996L144.534 201.42H147.362L150.442 210.996L153.382 201.42H156.154L151.646 215H149.182ZM160.324 211.08C160.324 211.603 160.51 212.088 160.884 212.536C161.257 212.984 161.826 213.208 162.592 213.208C163.282 213.208 163.926 213.04 164.524 212.704C165.14 212.368 165.681 211.939 166.148 211.416V208.672H162.844C162.022 208.672 161.397 208.915 160.968 209.4C160.538 209.885 160.324 210.445 160.324 211.08ZM158.728 202.26C159.25 201.905 160.006 201.616 160.996 201.392C161.985 201.168 162.769 201.056 163.348 201.056C164.916 201.056 166.222 201.495 167.268 202.372C168.313 203.249 168.836 204.388 168.836 205.788V215H167.324C167.193 214.795 167.072 214.58 166.96 214.356C166.848 214.132 166.736 213.917 166.624 213.712C166.157 214.123 165.56 214.496 164.832 214.832C164.104 215.168 163.376 215.336 162.648 215.336C161.042 215.336 159.848 214.935 159.064 214.132C158.298 213.329 157.916 212.312 157.916 211.08C157.916 209.717 158.373 208.681 159.288 207.972C160.221 207.244 161.425 206.88 162.9 206.88H166.12C166.12 205.947 165.933 205.144 165.56 204.472C165.186 203.8 164.468 203.464 163.404 203.464C162.601 203.464 161.873 203.567 161.22 203.772C160.566 203.959 159.988 204.164 159.484 204.388L158.728 202.26ZM175.438 216.708L176.222 214.636L171.098 201.812L173.814 201.42L177.594 211.164L181.178 201.42H183.95L179.386 213.376L177.93 217.464C177.576 218.397 176.96 219.191 176.082 219.844C175.224 220.497 174.272 220.945 173.226 221.188L172.33 219.116C173.002 218.817 173.628 218.5 174.206 218.164C174.785 217.828 175.196 217.343 175.438 216.708ZM186.369 211.64C186.836 211.64 187.228 211.808 187.545 212.144C187.862 212.461 188.021 212.853 188.021 213.32C188.021 213.787 187.862 214.188 187.545 214.524C187.228 214.841 186.836 215 186.369 215C185.884 215 185.473 214.841 185.137 214.524C184.82 214.188 184.661 213.787 184.661 213.32C184.661 212.853 184.82 212.461 185.137 212.144C185.473 211.808 185.884 211.64 186.369 211.64Z" fill="#54370D"/>
</svg>
