<svg width="182" height="182" viewBox="0 0 182 182" fill="none" xmlns="http://www.w3.org/2000/svg">
<g filter="url(#filter0_d_3061_638)">
<circle cx="92.8" cy="86.8" r="80" fill="#4EA487"/>
<path d="M154.276 88.184C154.848 88.2512 155.365 88.5159 155.826 88.9782C156.287 89.4405 156.657 90.0424 156.935 90.7839C157.216 91.5042 157.411 92.3111 157.521 93.2047C157.631 94.0983 157.631 95.0112 157.521 95.9434C157.208 98.6131 155.978 100.584 153.83 101.857C151.683 103.13 148.766 103.55 145.08 103.117C141.393 102.685 138.654 101.59 136.863 99.8328C135.074 98.0548 134.34 95.7991 134.661 93.0659C134.76 92.2184 134.941 91.4126 135.203 90.6485C135.464 89.8845 135.778 89.2233 136.144 88.6648C136.513 88.0852 136.919 87.6495 137.361 87.3578C137.806 87.0449 138.272 86.917 138.759 86.9743C139.183 87.024 139.551 87.2713 139.864 87.7162C140.156 88.1586 140.237 88.748 140.108 89.4846C138.859 89.5098 137.885 89.8466 137.186 90.4948C136.468 91.1194 136.041 92.0143 135.904 93.1796C135.69 95.0018 136.387 96.4797 137.993 97.6135C139.579 98.7448 142.067 99.5095 145.457 99.9075C148.847 100.306 151.453 100.15 153.277 99.4403C155.081 98.707 156.089 97.4399 156.3 95.639C156.39 94.8762 156.313 94.1584 156.07 93.4854C155.829 92.7913 155.417 92.1844 154.834 91.6648C154.232 91.1216 153.464 90.7092 152.53 90.4278C152.535 90.0202 152.601 89.6413 152.728 89.2911C152.855 88.9409 153.049 88.6629 153.31 88.4572C153.551 88.2278 153.873 88.1368 154.276 88.184ZM155.541 67.9672C155.76 68.9019 155.606 69.6939 155.079 70.3433C154.547 70.9718 153.554 71.4564 152.1 71.797L149.607 72.3808L149.71 71.6993C151.014 71.7446 152.234 71.9956 153.371 72.4524C154.487 72.914 155.437 73.5569 156.222 74.381C156.985 75.21 157.501 76.1957 157.769 77.3381C158.051 78.5428 157.953 79.5737 157.474 80.4307C156.975 81.2926 156.175 81.8525 155.074 82.1104C154.181 82.3196 153.349 82.2736 152.577 81.9723C151.8 81.6502 151.091 81.1481 150.449 80.4658C149.807 79.7836 149.239 78.9963 148.746 78.1041C148.313 77.2852 147.95 76.4389 147.658 75.5652C147.366 74.6915 147.145 73.8888 146.995 73.1569L146.216 73.3394C144.43 73.7578 143.156 74.352 142.394 75.122C141.612 75.8969 141.378 76.9594 141.695 78.3095C141.807 78.7873 141.991 79.248 142.249 79.6917C142.501 80.1146 142.851 80.438 143.297 80.662C143.719 80.8701 144.251 80.8987 144.895 80.7479C145.29 80.6555 145.694 80.4623 146.107 80.1683C146.494 79.8584 146.726 79.4427 146.801 78.9212C147.099 79.0705 147.334 79.2784 147.506 79.5449C147.657 79.8162 147.769 80.1077 147.842 80.4192C148.022 81.1878 147.885 81.8662 147.431 82.4545C146.952 83.0269 146.359 83.3959 145.653 83.5613C144.427 83.8483 143.364 83.5168 142.462 82.5668C141.56 81.6167 140.89 80.207 140.452 78.3376C139.942 76.1566 140.117 74.4283 140.98 73.1527C141.817 71.8611 143.388 70.9453 145.693 70.4053L151.738 68.9895C152.839 68.7316 153.304 68.2392 153.134 67.5122C153.1 67.3668 153.019 67.2104 152.892 67.0429C152.74 66.8595 152.545 66.7298 152.308 66.6539C152.466 66.4854 152.633 66.3586 152.811 66.2732C152.962 66.172 153.121 66.1019 153.287 66.063C153.765 65.9511 154.221 66.0743 154.656 66.4327C155.09 66.791 155.385 67.3025 155.541 67.9672ZM155.523 76.4508C155.371 75.8949 155.058 75.3546 154.585 74.8301C154.091 74.3105 153.494 73.8695 152.796 73.5072C152.098 73.1449 151.338 72.8956 150.517 72.7592C149.697 72.6228 148.868 72.6415 148.033 72.8153C148.124 73.2979 148.256 73.8148 148.429 74.3658C148.576 74.901 148.765 75.4265 148.995 75.9422C149.221 76.4372 149.476 76.8704 149.76 77.2421C150.271 78.0207 150.863 78.5832 151.535 78.9296C152.208 79.276 152.939 79.3567 153.728 79.1718C154.331 79.0307 154.842 78.7356 155.263 78.2865C155.663 77.8423 155.75 77.2304 155.523 76.4508ZM133.445 60.7601C132.83 59.8115 132.53 58.8995 132.547 58.0239C132.546 57.16 132.758 56.349 133.182 55.591C133.605 54.833 134.17 54.136 134.876 53.4999C135.553 52.8575 136.267 52.2925 137.019 51.8049C139.489 50.2029 141.735 49.4708 143.757 49.6086C145.767 49.7286 147.347 50.6745 148.497 52.4464C149.077 53.3413 149.391 54.2181 149.44 55.0767C149.477 55.9174 149.269 56.6752 148.816 57.35L151.662 55.5041C152.038 55.2603 152.48 54.9611 152.987 54.6065C153.483 54.2341 153.973 53.8527 154.457 53.4623C154.948 53.0424 155.352 52.6658 155.67 52.3326C155.847 52.3703 156.079 52.4738 156.367 52.6431C156.661 52.7829 156.918 53.0228 157.139 53.3629C157.406 53.7746 157.501 54.1959 157.425 54.6269C157.366 55.0463 157.14 55.3837 156.746 55.6391L141.346 65.5904C140.845 65.9155 140.53 66.1956 140.403 66.4306C140.258 66.6773 140.278 66.9439 140.464 67.2302C140.522 67.3197 140.616 67.4245 140.744 67.5444C140.873 67.6644 141.056 67.7111 141.293 67.6845C141.201 67.8963 141.093 68.0814 140.966 68.2395C140.84 68.3977 140.714 68.5174 140.589 68.5987C140.195 68.8541 139.769 68.902 139.309 68.7424C138.849 68.5827 138.457 68.2523 138.132 67.7512C137.598 66.9279 137.546 66.1225 137.976 65.335C138.377 64.5412 139.15 63.7728 140.295 63.0298L142.55 61.567L143.121 62.0358C142.121 62.5321 141.158 62.8898 140.232 63.1089C139.277 63.3217 138.391 63.3875 137.576 63.3062C136.731 63.2187 135.959 62.9693 135.26 62.5581C134.561 62.147 133.956 61.5476 133.445 60.7601ZM135.33 60.4909C135.736 61.1174 136.29 61.5593 136.991 61.8166C137.68 62.0561 138.466 62.131 139.349 62.0416C140.202 61.9458 141.108 61.7146 142.065 61.3479C142.993 60.975 143.913 60.4924 144.826 59.9004C145.47 59.4824 146.05 59.043 146.564 58.582C147.061 58.1326 147.455 57.6612 147.745 57.1678C148.006 56.6681 148.125 56.146 148.102 55.6013C148.079 55.0566 147.876 54.489 147.493 53.8983C146.704 52.6813 145.575 52.1168 144.106 52.2048C142.619 52.3044 140.82 53.0392 138.708 54.4091C138.064 54.827 137.461 55.2691 136.899 55.7354C136.307 56.1955 135.834 56.6806 135.478 57.191C135.093 57.695 134.873 58.2189 134.819 58.7626C134.765 59.3063 134.935 59.8824 135.33 60.4909ZM122.101 48.4468C121.201 47.7629 120.61 47.0062 120.329 46.1768C120.036 45.3643 119.96 44.5297 120.101 43.6729C120.243 42.8162 120.538 41.9689 120.987 41.1311C121.406 40.2973 121.887 39.5237 122.429 38.8102C124.209 36.4658 126.074 35.0159 128.023 34.4603C129.955 33.8918 131.762 34.2463 133.444 35.5238C134.294 36.169 134.887 36.8873 135.223 37.6787C135.543 38.4572 135.604 39.2405 135.407 40.0286L137.459 37.3275C137.73 36.9707 138.044 36.5396 138.401 36.034C138.741 35.5155 139.073 34.9906 139.396 34.4593C139.716 33.898 139.968 33.4067 140.154 32.9855C140.334 32.9609 140.587 32.9796 140.915 33.0413C141.24 33.0731 141.563 33.2117 141.886 33.4568C142.276 33.7536 142.509 34.1177 142.583 34.5491C142.67 34.9635 142.572 35.3576 142.288 35.7313L131.171 50.3134C130.81 50.789 130.61 51.159 130.57 51.4233C130.517 51.7046 130.626 51.9485 130.898 52.1549C130.983 52.2195 131.106 52.2863 131.268 52.3556C131.43 52.4249 131.617 52.4068 131.831 52.3014C131.817 52.5318 131.777 52.7427 131.712 52.9343C131.647 53.1259 131.569 53.2812 131.479 53.4001C131.195 53.7738 130.81 53.9635 130.324 53.9691C129.837 53.9746 129.356 53.7968 128.88 53.4355C128.099 52.8419 127.777 52.1018 127.915 51.2151C128.023 50.3326 128.489 49.3477 129.315 48.2604L130.941 46.1199L131.637 46.3673C130.864 47.1733 130.079 47.8363 129.283 48.3562C128.456 48.8802 127.645 49.2422 126.85 49.4422C126.026 49.6462 125.215 49.6733 124.418 49.5234C123.621 49.3734 122.849 49.0146 122.101 48.4468ZM123.783 47.5546C124.378 48.0063 125.049 48.2344 125.795 48.2389C126.525 48.2306 127.29 48.0347 128.09 47.6513C128.86 47.272 129.634 46.7477 130.41 46.0782C131.157 45.4129 131.859 44.6471 132.517 43.7807C132.982 43.1691 133.378 42.5592 133.706 41.9511C134.021 41.3599 134.231 40.7831 134.337 40.2205C134.413 39.662 134.348 39.1304 134.142 38.6257C133.936 38.1209 133.553 37.6557 132.992 37.2298C131.837 36.3524 130.583 36.2039 129.232 36.7845C127.867 37.382 126.423 38.6831 124.9 40.6877C124.436 41.2993 124.018 41.9197 123.648 42.5489C123.247 43.1822 122.966 43.7992 122.804 44.3998C122.613 45.0045 122.584 45.5718 122.717 46.1017C122.85 46.6316 123.206 47.1159 123.783 47.5546ZM108.782 23.3116C109.698 23.6001 110.301 24.1367 110.59 24.9213C110.859 25.6995 110.77 26.8008 110.321 28.2251L109.552 30.6667L109.018 30.2302C109.722 29.1323 110.56 28.211 111.533 27.4662C112.499 26.7418 113.537 26.2524 114.646 25.9979C115.749 25.7638 116.86 25.823 117.979 26.1756C119.159 26.5475 119.995 27.1578 120.489 28.0065C120.975 28.8756 121.049 29.8493 120.709 30.9277C120.433 31.8027 119.969 32.4952 119.316 33.0052C118.643 33.5089 117.849 33.8627 116.935 34.0668C116.021 34.2708 115.054 34.3576 114.035 34.3272C113.11 34.2818 112.197 34.1619 111.296 33.9676C110.396 33.7733 109.592 33.5538 108.887 33.3091L108.646 34.0721C108.095 35.822 107.956 37.2209 108.23 38.269C108.497 39.3373 109.292 40.0799 110.615 40.4966C111.083 40.644 111.573 40.7203 112.086 40.7253C112.578 40.7239 113.035 40.5882 113.456 40.3181C113.849 40.0619 114.146 39.6185 114.345 38.9877C114.466 38.6011 114.506 38.1551 114.464 37.6498C114.395 37.1584 114.156 36.7474 113.745 36.4168C114.026 36.2368 114.324 36.1408 114.641 36.1288C114.952 36.1371 115.26 36.1894 115.565 36.2856C116.318 36.5228 116.832 36.9866 117.106 37.677C117.354 38.3814 117.369 39.0794 117.151 39.7712C116.773 40.9717 115.945 41.7175 114.668 42.0085C113.391 42.2994 111.836 42.1564 110.005 41.5794C107.869 40.9063 106.472 39.8734 105.815 38.4809C105.131 37.1023 105.144 35.2837 105.856 33.0252L107.722 27.1041C108.061 26.0257 107.875 25.3743 107.163 25.1499C107.021 25.1051 106.845 25.0945 106.636 25.1182C106.401 25.1558 106.19 25.2571 106.004 25.4221C105.939 25.2005 105.916 24.9918 105.933 24.7958C105.923 24.6138 105.944 24.4414 105.995 24.2786C106.142 23.8106 106.481 23.4812 107.011 23.2903C107.541 23.0993 108.131 23.1064 108.782 23.3116ZM116.07 27.6544C115.514 27.5017 114.89 27.4951 114.197 27.6348C113.498 27.7947 112.815 28.0827 112.147 28.4985C111.479 28.9144 110.877 29.4405 110.341 30.0768C109.805 30.7131 109.399 31.4351 109.122 32.2425C109.584 32.4103 110.096 32.5604 110.658 32.6928C111.193 32.8392 111.742 32.9448 112.303 33.0098C112.843 33.0683 113.346 33.0701 113.811 33.0152C114.741 32.9729 115.527 32.7507 116.168 32.3488C116.809 31.9469 117.251 31.3593 117.495 30.5861C117.681 29.996 117.688 29.4056 117.516 28.8146C117.338 28.2441 116.856 27.8573 116.07 27.6544ZM94.8011 21.2622C95.9096 21.2195 96.8349 21.408 97.5769 21.8278C98.2984 22.2697 98.8765 22.8665 99.3111 23.6184C99.7457 24.3702 100.066 25.2011 100.272 26.1112C100.478 27.0426 100.599 27.9667 100.635 28.8833C100.747 31.8038 100.259 34.107 99.1715 35.7927C98.0622 37.4793 96.4204 38.3645 94.246 38.4482C93.1588 38.4901 92.2446 38.3118 91.5034 37.9134C90.7409 37.5158 90.1956 36.939 89.8676 36.1831L90.0104 39.8923C90.0416 40.7024 90.1048 41.5112 90.2 42.3188C90.2959 43.1477 90.453 43.8996 90.6711 44.5743C90.5481 44.7072 90.3509 44.8535 90.0796 45.0134C89.7877 45.1955 89.4392 45.2943 89.0342 45.3099C88.5439 45.3288 88.1335 45.2058 87.8031 44.941C87.4726 44.6762 87.2976 44.288 87.2779 43.7763L86.6104 25.6126C86.5883 25.037 86.4866 24.6139 86.3054 24.3434C86.1037 24.0949 85.8429 23.9769 85.5232 23.9892C85.4166 23.9933 85.2788 24.02 85.1099 24.0692C84.9205 24.1405 84.7869 24.2737 84.709 24.4689C84.5532 24.3041 84.4503 24.1266 84.4003 23.9364C84.3289 23.747 84.2904 23.5777 84.2847 23.4284C84.2658 22.9381 84.4531 22.536 84.8466 22.2219C85.241 21.9292 85.7473 21.7709 86.3655 21.7471C87.3248 21.7102 88.0537 22.0664 88.5522 22.8158C89.0303 23.5873 89.296 24.6658 89.3493 26.0515L89.4491 28.6416L88.7542 28.8925C88.8394 27.7791 89.0354 26.7681 89.342 25.8596C89.6272 24.952 90.0236 24.1575 90.5311 23.4761C91.0173 22.7956 91.6158 22.2601 92.3266 21.8698C93.0383 21.5008 93.8631 21.2983 94.8011 21.2622ZM94.0682 23.0197C93.3221 23.0484 92.6698 23.2977 92.1115 23.7675C91.5327 24.2595 91.0666 24.9072 90.7132 25.7108C90.3386 26.5151 90.075 27.4326 89.9226 28.4632C89.7488 29.4947 89.6837 30.5753 89.7272 31.7051C89.7518 32.3447 89.8293 32.9715 89.9597 33.5856C90.0909 34.221 90.2943 34.7896 90.5698 35.2914C90.8453 35.7931 91.234 36.1838 91.7358 36.4634C92.2376 36.7429 92.8722 36.8679 93.6396 36.8384C95.0039 36.7858 96.0235 36.0954 96.6982 34.7672C97.3524 33.461 97.6319 31.5715 97.5367 29.0987C97.5055 28.2886 97.4435 27.5118 97.3509 26.7681C97.2368 26.0253 97.0511 25.3599 96.7936 24.7721C96.537 24.2055 96.1889 23.7599 95.7494 23.4353C95.3107 23.1319 94.7503 22.9934 94.0682 23.0197ZM70.5201 25.1944C72.697 24.3178 74.6777 24.3251 76.4625 25.2163C78.2354 26.1352 79.6239 27.8414 80.6279 30.3349C81.64 32.8481 81.8253 35.0502 81.184 36.9414C80.5228 38.8405 79.1039 40.2283 76.9271 41.1049C74.7503 41.9814 72.7754 41.9602 71.0025 41.0413C69.2295 40.1224 67.8371 38.4063 66.825 35.8931C65.821 33.3997 65.6396 31.2074 66.281 29.3163C66.9303 27.4449 68.3433 26.071 70.5201 25.1944ZM70.9744 26.3224C69.6683 26.8483 68.9139 27.8305 68.7112 29.269C68.4888 30.7155 68.8198 32.537 69.7044 34.7336C70.5969 36.95 71.6245 38.5025 72.7873 39.3912C73.9382 40.3076 75.1668 40.5028 76.4728 39.9769C77.7987 39.443 78.5689 38.4429 78.7834 36.9766C78.9861 35.5381 78.6411 33.7107 77.7486 31.4943C76.8641 29.2977 75.8503 27.7511 74.7073 26.8545C73.5446 25.9658 72.3002 25.7885 70.9744 26.3224ZM51.1623 36.1152C52.9548 34.5678 54.8337 33.904 56.799 34.1239C58.7481 34.3576 60.6289 35.5242 62.4411 37.6235C64.1837 39.642 65.0482 41.6718 65.0345 43.7127C65.0187 45.7837 64.0742 47.6278 62.201 49.2449C60.8283 50.4299 59.5358 51.0384 58.3235 51.0704C57.1111 51.1024 56.1215 50.6744 55.3548 49.7862C54.8529 49.2049 54.6101 48.5972 54.6264 47.9631C54.6427 47.329 54.9092 46.7889 55.4259 46.3428C55.652 46.1477 55.921 45.9859 56.2329 45.8575C56.5287 45.7431 56.8179 45.7189 57.1004 45.785C56.9536 46.1373 56.934 46.5064 57.0418 46.8925C57.1496 47.2785 57.3708 47.6653 57.7054 48.0529C58.1097 48.5212 58.5422 48.8101 59.0031 48.9195C59.4618 49.059 59.9083 49.054 60.3428 48.9044C60.7773 48.7548 61.2045 48.4987 61.6244 48.1363C62.5933 47.2998 63.0023 46.1576 62.8514 44.7096C62.6983 43.2917 61.8759 41.7188 60.3843 39.9909C59.269 38.6991 58.2003 37.8039 57.1781 37.3053C56.1537 36.8369 55.1894 36.683 54.2852 36.8435C53.3788 37.0341 52.5542 37.4501 51.8114 38.0913C51.23 38.5932 50.7889 39.1432 50.4878 39.7412C50.1707 40.3532 50.0029 40.9913 49.9844 41.6555C49.9659 42.3196 50.1221 42.9739 50.4529 43.6183C50.2357 43.6932 50.0111 43.6615 49.7792 43.5235C49.5474 43.3855 49.3067 43.0578 49.0573 42.5403C48.593 41.4475 48.5532 40.3404 48.938 39.2191C49.3228 38.0978 50.0642 37.0632 51.1623 36.1152ZM55.7693 58.5233C56.0589 58.1011 56.4619 57.8343 56.9782 57.7228C57.4824 57.6289 57.9456 57.7268 58.3678 58.0165C58.8076 58.3182 59.0744 58.7212 59.1683 59.2254C59.2501 59.7472 59.1462 60.2192 58.8565 60.6414C58.5669 61.0636 58.17 61.3216 57.6657 61.4155C57.1615 61.5094 56.6895 61.4055 56.2497 61.1038C55.8275 60.8141 55.5695 60.4172 55.4756 59.9129C55.3817 59.4087 55.4796 58.9455 55.7693 58.5233ZM42.2693 51.1629C41.7591 50.8129 41.2309 50.4893 40.6845 50.192C40.1382 49.8948 39.6056 49.6717 39.0869 49.5228C39.0538 49.3449 39.0601 49.0905 39.1059 48.7597C39.1221 48.4345 39.2448 48.1048 39.4741 47.7705C39.7397 47.3835 40.0773 47.1365 40.487 47.0296C40.9022 46.9522 41.3122 47.0524 41.7168 47.33L51.0494 53.6941C51.5772 54.0561 52.1142 54.3858 52.6606 54.683C53.1949 54.9978 53.7274 55.2209 54.2582 55.3522C54.2793 55.5478 54.2729 55.8021 54.2392 56.1153C54.2054 56.4285 54.0739 56.7522 53.8446 57.0864C53.5791 57.4734 53.2475 57.7116 52.8498 57.801C52.4577 57.92 52.0505 57.8347 51.6283 57.5451L42.2693 51.1629ZM29.7023 69.2939C30.0126 68.3855 30.5634 67.7959 31.3548 67.5251C32.1392 67.2746 33.238 67.3907 34.6512 67.8734L37.0737 68.7009L36.6246 69.2238C35.5438 68.4939 34.6428 67.6338 33.9216 66.6435C33.2205 65.6601 32.756 64.611 32.5281 63.4961C32.3205 62.3882 32.4063 61.279 32.7856 60.1687C33.1855 58.9978 33.8157 58.176 34.6759 57.7034C35.5564 57.2377 36.5316 57.1876 37.6016 57.5531C38.4697 57.8496 39.1509 58.3303 39.6452 58.9951C40.1326 59.6801 40.4674 60.482 40.6494 61.4008C40.8315 62.3197 40.8952 63.2883 40.8404 64.3066C40.7729 65.2303 40.6312 66.14 40.4154 67.0357C40.1996 67.9314 39.961 68.7291 39.6994 69.4287L40.4565 69.6873C42.1927 70.2804 43.5879 70.4527 44.6422 70.2041C45.7166 69.9624 46.478 69.1855 46.9262 67.8733C47.0848 67.409 47.1728 66.9205 47.1901 66.4079C47.2005 65.9155 47.0757 65.4558 46.8157 65.0289C46.5691 64.629 46.1328 64.3222 45.507 64.1084C45.1234 63.9774 44.6786 63.9269 44.1724 63.9568C43.6794 64.0139 43.2628 64.2436 42.9225 64.6458C42.7492 64.3612 42.6604 64.0603 42.656 63.7432C42.6718 63.433 42.7314 63.1265 42.8348 62.8237C43.09 62.0767 43.566 61.5743 44.2628 61.3163C44.9728 61.0855 45.6711 61.0873 46.3575 61.3217C47.5486 61.7286 48.2743 62.5739 48.5346 63.8576C48.795 65.1414 48.6148 66.6917 47.9942 68.5086C47.2701 70.6284 46.2041 72.0001 44.7963 72.6238C43.4017 73.2746 41.5839 73.2173 39.3431 72.4519L33.4684 70.4451C32.3984 70.0796 31.7427 70.2502 31.5014 70.9568C31.4531 71.0981 31.4383 71.2734 31.457 71.4826C31.489 71.719 31.5852 71.9322 31.7457 72.1223C31.5227 72.1814 31.3134 72.2001 31.1179 72.1784C30.9357 72.1838 30.7639 72.1589 30.6024 72.1037C30.138 71.9451 29.8168 71.5987 29.6386 71.0644C29.4604 70.5301 29.4816 69.94 29.7023 69.2939ZM34.2182 62.1122C34.0522 62.6641 34.0308 63.288 34.1538 63.9838C34.297 64.6865 34.5685 65.3766 34.9682 66.0542C35.368 66.7318 35.8795 67.3462 36.5029 67.8972C37.1262 68.4483 37.8382 68.8719 38.6388 69.1679C38.8176 68.7105 38.9799 68.2023 39.1257 67.6434C39.2848 67.1117 39.4036 66.5661 39.4819 66.0067C39.5534 65.4675 39.5672 64.965 39.5235 64.4992C39.5034 63.5681 39.3001 62.7772 38.9136 62.1267C38.5272 61.4762 37.9503 61.0199 37.1832 60.7579C36.5977 60.5579 36.0076 60.5366 35.4127 60.6941C34.8381 60.8585 34.4399 61.3312 34.2182 62.1122ZM27.0049 93.0299C26.9362 92.501 27.0583 92.0334 27.3713 91.627C27.6842 91.2207 28.0946 90.9845 28.6023 90.9186C29.1312 90.8499 29.5988 90.9721 30.0052 91.285C30.4115 91.598 30.649 92.0189 30.7177 92.5478C30.7836 93.0555 30.6601 93.5125 30.3472 93.9189C30.0342 94.3252 29.6133 94.5628 29.0844 94.6314C28.5767 94.6974 28.1196 94.5739 27.7133 94.2609C27.3069 93.948 27.0708 93.5376 27.0049 93.0299ZM36.9472 121.323C36.6831 120.909 36.5817 120.493 36.6432 120.074C36.7226 119.644 36.9691 119.296 37.3826 119.032L54.5706 108.015L55.9764 110.572L41.1615 120.074C40.6401 120.407 40.136 120.767 39.6491 121.154C39.1622 121.541 38.7489 121.944 38.4093 122.363C38.2325 122.324 38.0008 122.219 37.7142 122.048C37.4211 121.906 37.1654 121.664 36.9472 121.323ZM49.8151 104.255C49.7722 104.03 49.8184 103.785 49.9537 103.521C50.1186 103.264 50.3186 103.023 50.5538 102.796C50.8005 102.588 51.0367 102.463 51.2624 102.42C51.5061 102.365 51.6854 102.428 51.8002 102.608L59.9139 115.309C60.0288 115.489 60.0045 115.669 59.8412 115.849C59.7074 116.036 59.4884 116.189 59.1843 116.307C58.8916 116.443 58.5882 116.523 58.2741 116.547C57.9895 116.577 57.7538 116.525 57.567 116.391C57.3613 115.712 57.1154 114.971 56.8294 114.166C56.5727 113.368 56.2777 112.569 55.9441 111.77C55.6106 110.97 55.2257 110.229 54.7893 109.546C54.3643 108.881 53.865 108.238 53.2913 107.617C52.7175 106.996 52.1226 106.401 51.5064 105.833C50.9197 105.271 50.3559 104.745 49.8151 104.255ZM64.1839 125.733C64.5482 126.029 64.7603 126.393 64.8204 126.827C64.8804 127.26 64.7356 127.693 64.3858 128.123L57.1669 137.06C56.7903 137.523 56.5709 137.895 56.5088 138.174C56.4768 138.45 56.5766 138.683 56.8084 138.871C56.9078 138.952 57.0371 139.029 57.1965 139.104C57.3693 139.162 57.5577 139.15 57.7615 139.068C57.7284 139.481 57.5975 139.828 57.3689 140.11C57.0729 140.474 56.6901 140.658 56.2202 140.661C55.767 140.677 55.292 140.484 54.7953 140.08C54.133 139.542 53.7945 138.91 53.78 138.184C53.7955 137.454 54.1664 136.642 54.8928 135.748L56.164 134.183L56.9401 133.989C56.0337 134.902 55.0858 135.561 54.0965 135.967C53.1207 136.356 52.1485 136.487 51.1799 136.36C50.2413 136.23 49.3498 135.821 48.5054 135.135C47.1807 134.059 46.5117 132.87 46.4981 131.567C46.5146 130.261 47.2896 128.664 48.8231 126.777L52.7779 121.909C53.1277 121.478 53.4795 120.994 53.8333 120.457C54.2007 119.904 54.4795 119.374 54.6699 118.869C54.9265 118.858 55.1946 118.883 55.474 118.945C55.7834 119.004 56.0871 119.155 56.3852 119.397C56.766 119.706 56.9849 120.063 57.0418 120.466C57.1153 120.883 56.9906 121.291 56.6678 121.688L51.3005 128.295C50.48 129.305 49.8819 130.193 49.5063 130.96C49.1442 131.71 49.0076 132.369 49.0966 132.936C49.2157 133.5 49.565 134.017 50.1445 134.488C50.5419 134.811 51.0184 135.019 51.5741 135.113C52.1298 135.208 52.7533 135.151 53.4445 134.943C54.1492 134.718 54.8953 134.307 55.6828 133.71C56.4868 133.126 57.3193 132.305 58.1802 131.245C58.9604 130.285 59.5978 129.483 60.0924 128.84C60.6036 128.211 61.0123 127.691 61.3186 127.28C61.6383 126.853 61.8727 126.48 62.0217 126.161C62.2007 125.839 62.3564 125.512 62.4888 125.18C62.6689 125.161 62.9136 125.182 63.223 125.241C63.5325 125.3 63.8527 125.464 64.1839 125.733ZM64.8371 146.38C64.4383 146.229 64.1323 145.953 63.9193 145.552C63.7138 145.132 63.7058 144.673 63.8952 144.174L67.9519 133.494C68.164 132.936 68.242 132.521 68.1857 132.248C68.1569 131.964 67.993 131.764 67.6938 131.651C67.5941 131.613 67.4531 131.593 67.2709 131.593C67.0962 131.572 66.9249 131.632 66.757 131.774C66.6389 131.364 66.6442 130.99 66.773 130.651C66.9472 130.192 67.2469 129.883 67.6721 129.725C68.1172 129.575 68.6488 129.617 69.267 129.852C70.0648 130.155 70.5632 130.675 70.7623 131.413C70.9889 132.138 70.8726 133.075 70.4132 134.224L69.7542 135.959L69.4179 135.763C70.2812 134.151 71.2447 133.057 72.3083 132.479C73.3995 131.89 74.5234 131.815 75.6801 132.254C76.7171 132.648 77.4587 133.249 77.9047 134.057C78.3582 134.846 78.3918 135.749 78.0055 136.766C77.7479 137.444 77.3464 137.93 76.8008 138.225C76.2552 138.52 75.7293 138.583 75.2232 138.413C74.6572 138.221 74.2976 137.936 74.1444 137.558C74.54 137.298 74.8208 137.039 74.9867 136.783C75.1601 136.506 75.3113 136.199 75.44 135.86C75.6749 135.241 75.7057 134.74 75.5326 134.354C75.367 133.949 75.015 133.644 74.4765 133.44C73.958 133.243 73.3785 133.297 72.738 133.601C72.1051 133.885 71.4521 134.493 70.7789 135.424C70.1134 136.335 69.4586 137.638 68.8147 139.333C68.3829 140.47 68.0231 141.417 67.7352 142.175C67.4748 142.921 67.2599 143.547 67.0905 144.053C66.9286 144.539 66.8132 144.963 66.7443 145.325C66.6829 145.666 66.6552 146.01 66.6612 146.354C66.4961 146.428 66.2474 146.482 65.9152 146.516C65.6029 146.557 65.2436 146.512 64.8371 146.38ZM82.6393 151.825C82.0001 151.792 81.5715 151.61 81.3534 151.278C81.1577 150.927 81.0723 150.506 81.0972 150.016L82.1368 129.594C82.1415 129.082 82.3107 128.695 82.6444 128.435C82.9781 128.174 83.39 128.056 83.88 128.081C84.3061 128.103 84.6533 128.206 84.9216 128.39C85.191 128.553 85.3864 128.702 85.5077 128.837C85.3517 129.384 85.2404 129.891 85.1739 130.358C85.1075 130.824 85.0421 131.269 84.9778 131.693C84.9359 132.097 84.9035 132.523 84.8807 132.97C84.859 133.396 84.8144 133.853 84.7469 134.341L84.4107 140.316L84.2319 140.05C84.5844 139 85.0678 138.106 85.6821 137.369C86.3188 136.611 87.0747 136.03 87.9497 135.626C88.8247 135.222 89.8055 135.047 90.8921 135.102C92.2344 135.171 93.2184 135.563 93.8441 136.278C94.4699 136.993 94.7557 137.884 94.7015 138.949C94.657 139.823 94.3931 140.6 93.9099 141.28C93.4491 141.94 92.8648 142.508 92.157 142.985C91.4705 143.463 90.7345 143.863 89.9491 144.186C90.2206 144.307 90.4457 144.5 90.6245 144.765C90.8256 145.011 91.0246 145.298 91.2214 145.629L92.7622 148.719C92.976 149.136 93.1526 149.444 93.2919 149.643C93.4537 149.822 93.6837 149.92 93.982 149.935C94.0885 149.94 94.2281 149.926 94.4007 149.892C94.5744 149.837 94.7396 149.738 94.8964 149.597C95.0379 149.754 95.1363 149.919 95.1916 150.092C95.2468 150.266 95.2701 150.438 95.2614 150.609C95.2343 151.141 94.9665 151.576 94.458 151.913C93.972 152.231 93.4306 152.374 92.8341 152.343C92.2588 152.314 91.7455 152.117 91.2941 151.752C90.8428 151.388 90.4954 150.868 90.252 150.193L87.9335 144.757C87.261 144.957 86.6004 145.137 85.9514 145.296C85.3249 145.435 84.7421 145.555 84.2029 145.656C84.1563 146.572 84.1172 147.339 84.0858 147.957C84.0554 148.554 84.0411 149.044 84.0429 149.429C84.0671 149.793 84.1041 150.115 84.1539 150.396C84.2261 150.656 84.3073 150.948 84.3976 151.273C84.2195 151.414 83.9888 151.541 83.7053 151.654C83.442 151.791 83.0867 151.847 82.6393 151.825ZM84.2647 144.442C85.13 144.229 85.9974 143.974 86.867 143.677C87.7589 143.359 88.5577 142.983 89.2634 142.549C89.9903 142.116 90.5714 141.612 91.0066 141.036C91.4642 140.44 91.713 139.748 91.7531 138.959C91.7933 138.171 91.6191 137.607 91.2305 137.266C90.8644 136.906 90.383 136.711 89.7864 136.68C88.7851 136.629 87.8723 136.935 87.0482 137.598C86.2465 138.241 85.6017 139.159 85.1138 140.351C84.6269 141.523 84.3439 142.886 84.2647 144.442ZM109.22 150.315C106.983 150.947 104.999 150.753 103.271 149.733C101.563 148.708 100.332 146.861 99.5787 144.192C98.8544 141.625 98.9201 139.423 99.7758 137.586C100.626 135.728 102.262 134.457 104.685 133.773C105.793 133.46 106.828 133.357 107.789 133.462C108.744 133.547 109.563 133.859 110.247 134.398C110.946 134.91 111.435 135.659 111.713 136.644C112.147 138.184 111.851 139.531 110.825 140.685C109.813 141.813 108.24 142.678 106.105 143.281C105.263 143.518 104.423 143.722 103.584 143.893C102.76 144.036 101.891 144.138 100.976 144.196L100.743 143.132C101.279 143.069 101.874 142.979 102.528 142.861C103.182 142.743 103.85 142.598 104.534 142.427C105.211 142.236 105.844 142.002 106.431 141.726C107.012 141.429 107.511 141.077 107.928 140.671C108.34 140.245 108.607 139.737 108.729 139.149C108.871 138.554 108.833 137.867 108.612 137.087C108.392 136.307 108.08 135.752 107.677 135.422C107.274 135.093 106.823 134.91 106.325 134.873C105.842 134.81 105.364 134.845 104.892 134.978C103.578 135.349 102.686 136.233 102.215 137.629C101.759 138.999 101.845 140.792 102.47 143.01C102.94 144.673 103.529 145.936 104.238 146.8C104.942 147.643 105.734 148.173 106.616 148.39C107.512 148.581 108.442 148.54 109.407 148.267C110.516 147.954 111.417 147.456 112.111 146.773C112.799 146.069 113.181 145.263 113.257 144.354C113.486 144.379 113.673 144.492 113.819 144.695C113.965 144.897 114.007 145.284 113.947 145.856C113.823 146.91 113.338 147.823 112.492 148.594C111.645 149.365 110.555 149.938 109.22 150.315ZM131.111 148.385C130.338 148.918 129.54 149.339 128.717 149.648C127.893 149.957 127.108 150.058 126.361 149.952C125.643 149.851 125.042 149.449 124.557 148.747C124.206 148.238 124.067 147.699 124.141 147.129C124.227 146.578 124.542 146.114 125.086 145.738C125.595 145.387 126.067 145.282 126.501 145.423C126.364 145.751 126.328 146.074 126.392 146.392C126.474 146.699 126.582 146.948 126.715 147.141C127.03 147.598 127.399 147.888 127.821 148.011C128.255 148.152 128.705 148.166 129.171 148.052C129.636 147.938 130.071 147.742 130.475 147.463C131.88 146.494 132.525 145.232 132.411 143.677C132.327 142.128 131.583 140.335 130.177 138.298C129.971 138 129.744 137.651 129.495 137.253C129.251 136.825 129.008 136.397 128.764 135.969C128.52 135.541 128.301 135.148 128.106 134.79L128.042 134.134C128.969 135.853 129.347 137.471 129.176 138.989C129.011 140.477 128.191 141.73 126.716 142.748C125.399 143.656 124.119 143.943 122.877 143.608C121.64 143.243 120.325 142.051 118.932 140.032L115.461 135.001C115.133 134.527 114.762 134.045 114.346 133.555C113.929 133.064 113.506 132.657 113.074 132.332C113.136 132.083 113.235 131.833 113.373 131.582C113.517 131.302 113.746 131.052 114.062 130.834C114.466 130.556 114.87 130.445 115.273 130.504C115.694 130.551 116.05 130.785 116.341 131.206L121.084 138.08C122.151 139.625 123.105 140.652 123.947 141.159C124.807 141.654 125.668 141.605 126.528 141.011C127.002 140.684 127.371 140.261 127.635 139.742C127.916 139.21 128.054 138.584 128.049 137.862C128.049 137.111 127.872 136.273 127.52 135.35C127.168 134.426 126.61 133.411 125.847 132.305C125.156 131.304 124.578 130.485 124.112 129.848C123.664 129.198 123.292 128.677 122.996 128.286C122.687 127.876 122.401 127.555 122.137 127.323C121.878 127.061 121.608 126.82 121.326 126.599C121.359 126.421 121.447 126.192 121.591 125.911C121.734 125.631 121.981 125.37 122.332 125.127C122.719 124.861 123.128 124.76 123.561 124.824C123.994 124.888 124.368 125.148 124.683 125.605L132.325 136.622C133.597 138.466 134.322 140.117 134.499 141.576C134.706 143.04 134.493 144.327 133.86 145.438C133.239 146.566 132.323 147.549 131.111 148.385ZM149.47 121.152C149.193 121.608 148.806 121.897 148.308 122.019C147.81 122.141 147.342 122.07 146.904 121.804C146.448 121.528 146.159 121.141 146.037 120.642C145.914 120.144 145.992 119.667 146.268 119.211C146.533 118.773 146.915 118.493 147.413 118.371C147.912 118.249 148.389 118.326 148.845 118.603C149.283 118.868 149.562 119.25 149.685 119.748C149.807 120.246 149.735 120.714 149.47 121.152Z" fill="#F1C953"/>
<g clip-path="url(#clip0_3061_638)">
<path d="M92.8 111.295C106.328 111.295 117.295 100.328 117.295 86.8001C117.295 73.2718 106.328 62.3051 92.8 62.3051C79.2718 62.3051 68.305 73.2718 68.305 86.8001C68.305 100.328 79.2718 111.295 92.8 111.295Z" fill="#E30A17"/>
<path d="M83.536 86.8001C83.536 80.5581 88.596 75.5001 94.835 75.5001C96.739 75.5001 98.534 75.9721 100.106 76.8041C97.554 74.2531 94.022 72.6741 90.13 72.6741C82.33 72.6741 76.006 78.9981 76.006 86.8001C76.006 94.6021 82.33 100.926 90.13 100.926C94.029 100.926 97.554 99.3471 100.106 96.7991C98.534 97.6311 96.739 98.1001 94.835 98.1001C88.596 98.1001 83.536 93.0401 83.536 86.8001Z" fill="white"/>
<path d="M100.429 86.8331L104.968 85.1351L105.178 80.2931L108.197 84.0861L112.865 82.7911L110.191 86.8331L112.865 90.8741L108.197 89.5791L105.178 93.3721L104.968 88.5281L100.429 86.8331Z" fill="white"/>
<mask id="mask0_3061_638" style="mask-type:luminance" maskUnits="userSpaceOnUse" x="68" y="62" width="50" height="50">
<path d="M92.8 111.3C106.331 111.3 117.3 100.331 117.3 86.8C117.3 73.2691 106.331 62.3 92.8 62.3C79.269 62.3 68.3 73.2691 68.3 86.8C68.3 100.331 79.269 111.3 92.8 111.3Z" fill="white"/>
</mask>
<g mask="url(#mask0_3061_638)">
<path opacity="0.4" d="M92.8 114.269C107.971 114.269 120.269 101.971 120.269 86.8001C120.269 71.6293 107.971 59.3311 92.8 59.3311C77.6293 59.3311 65.331 71.6293 65.331 86.8001C65.331 101.971 77.6293 114.269 92.8 114.269Z" fill="url(#paint0_radial_3061_638)"/>
</g>
<mask id="mask1_3061_638" style="mask-type:luminance" maskUnits="userSpaceOnUse" x="68" y="62" width="50" height="50">
<path d="M92.8 111.3C106.331 111.3 117.3 100.331 117.3 86.8C117.3 73.2691 106.331 62.3 92.8 62.3C79.269 62.3 68.3 73.2691 68.3 86.8C68.3 100.331 79.269 111.3 92.8 111.3Z" fill="white"/>
</mask>
<g mask="url(#mask1_3061_638)">
<path opacity="0.6" d="M92.8 118.478C110.295 118.478 124.478 104.295 124.478 86.8001C124.478 69.3048 110.295 55.1221 92.8 55.1221C75.3047 55.1221 61.122 69.3048 61.122 86.8001C61.122 104.295 75.3047 118.478 92.8 118.478Z" fill="url(#paint1_radial_3061_638)"/>
</g>
<path d="M93.106 93.802C102.664 93.802 110.412 87.5336 110.412 79.801C110.412 72.0685 102.664 65.8 93.106 65.8C83.5481 65.8 75.8 72.0685 75.8 79.801C75.8 87.5336 83.5481 93.802 93.106 93.802Z" fill="url(#paint2_linear_3061_638)"/>
</g>
</g>
<defs>
<filter id="filter0_d_3061_638" x="-1.23978e-05" y="4.86374e-05" width="181.6" height="181.6" filterUnits="userSpaceOnUse" color-interpolation-filters="sRGB">
<feFlood flood-opacity="0" result="BackgroundImageFix"/>
<feColorMatrix in="SourceAlpha" type="matrix" values="0 0 0 0 0 0 0 0 0 0 0 0 0 0 0 0 0 0 127 0" result="hardAlpha"/>
<feOffset dx="-2" dy="4"/>
<feGaussianBlur stdDeviation="5.4"/>
<feComposite in2="hardAlpha" operator="out"/>
<feColorMatrix type="matrix" values="0 0 0 0 0 0 0 0 0 0 0 0 0 0 0 0 0 0 0.25 0"/>
<feBlend mode="normal" in2="BackgroundImageFix" result="effect1_dropShadow_3061_638"/>
<feBlend mode="normal" in="SourceGraphic" in2="effect1_dropShadow_3061_638" result="shape"/>
</filter>
<radialGradient id="paint0_radial_3061_638" cx="0" cy="0" r="1" gradientUnits="userSpaceOnUse" gradientTransform="translate(92.8 86.8001) scale(27.4688)">
<stop stop-opacity="0"/>
<stop offset="0.7576" stop-opacity="0"/>
<stop offset="1"/>
</radialGradient>
<radialGradient id="paint1_radial_3061_638" cx="0" cy="0" r="1" gradientUnits="userSpaceOnUse" gradientTransform="translate(92.8 86.8001) scale(31.6777)">
<stop stop-opacity="0"/>
<stop offset="0.5758" stop-opacity="0"/>
<stop offset="1"/>
</radialGradient>
<linearGradient id="paint2_linear_3061_638" x1="93.1056" y1="93.8021" x2="93.1056" y2="65.8002" gradientUnits="userSpaceOnUse">
<stop offset="0.0727" stop-color="white" stop-opacity="0.05"/>
<stop offset="0.897" stop-color="white" stop-opacity="0.75"/>
<stop offset="1" stop-color="white" stop-opacity="0.75"/>
</linearGradient>
<clipPath id="clip0_3061_638">
<rect width="50" height="50" fill="white" transform="translate(67.8 61.8)"/>
</clipPath>
</defs>
</svg>
