<svg width="132" height="133" viewBox="0 0 132 133" fill="none" xmlns="http://www.w3.org/2000/svg">
<path d="M64.6512 127.514C64.584 128.086 64.3193 128.603 63.857 129.064C63.3947 129.525 62.7928 129.895 62.0513 130.173C61.331 130.454 60.5241 130.649 59.6305 130.759C58.737 130.869 57.824 130.869 56.8918 130.76C54.2221 130.446 52.2508 129.216 50.9778 127.069C49.7049 124.922 49.2848 122.005 49.7177 118.318C50.1506 114.631 51.2455 111.892 53.0024 110.101C54.7805 108.312 57.0361 107.578 59.7693 107.899C60.6168 107.999 61.4226 108.179 62.1867 108.441C62.9507 108.702 63.6119 109.016 64.1704 109.382C64.75 109.751 65.1857 110.157 65.4774 110.599C65.7903 111.044 65.9182 111.51 65.8609 111.997C65.8112 112.421 65.5639 112.79 65.119 113.103C64.6766 113.394 64.0872 113.475 63.3506 113.346C63.3254 112.097 62.9886 111.123 62.3404 110.424C61.7158 109.706 60.8209 109.279 59.6556 109.142C57.8334 108.928 56.3555 109.625 55.2217 111.232C54.0904 112.817 53.3257 115.305 52.9277 118.695C52.5296 122.085 52.6854 124.692 53.3949 126.515C54.1282 128.319 55.3953 129.327 57.1962 129.539C57.959 129.628 58.6768 129.551 59.3498 129.308C60.0439 129.068 60.6508 128.656 61.1704 128.072C61.7136 127.47 62.126 126.702 62.4074 125.769C62.815 125.774 63.1939 125.84 63.5441 125.967C63.8943 126.094 64.1723 126.287 64.378 126.548C64.6074 126.79 64.6984 127.112 64.6512 127.514ZM84.868 128.779C83.9333 128.998 83.1413 128.844 82.4919 128.317C81.8634 127.785 81.3788 126.792 81.0382 125.338L80.4544 122.845L81.1359 122.949C81.0906 124.252 80.8396 125.472 80.3828 126.609C79.9212 127.725 79.2783 128.675 78.4542 129.46C77.6252 130.224 76.6395 130.739 75.4971 131.007C74.2924 131.289 73.2615 131.191 72.4045 130.713C71.5426 130.213 70.9827 129.413 70.7248 128.312C70.5156 127.419 70.5616 126.587 70.8629 125.815C71.185 125.038 71.6871 124.329 72.3694 123.687C73.0517 123.046 73.8389 122.478 74.7311 121.984C75.55 121.551 76.3963 121.188 77.27 120.896C78.1437 120.604 78.9464 120.383 79.6783 120.233L79.4959 119.455C79.0774 117.668 78.4832 116.394 77.7132 115.632C76.9383 114.85 75.8758 114.617 74.5257 114.933C74.0479 115.045 73.5872 115.229 73.1435 115.487C72.7206 115.739 72.3972 116.089 72.1732 116.536C71.9651 116.957 71.9365 117.489 72.0873 118.133C72.1797 118.528 72.3729 118.932 72.6669 119.345C72.9768 119.733 73.3925 119.964 73.914 120.039C73.7647 120.337 73.5568 120.572 73.2903 120.744C73.019 120.895 72.7275 121.007 72.416 121.08C71.6474 121.26 70.969 121.123 70.3807 120.669C69.8083 120.19 69.4393 119.597 69.2739 118.891C68.9869 117.665 69.3184 116.602 70.2684 115.7C71.2185 114.798 72.6282 114.128 74.4976 113.691C76.6786 113.18 78.4069 113.356 79.6825 114.218C80.9741 115.055 81.8899 116.626 82.4299 118.932L83.8457 124.976C84.1036 126.077 84.596 126.542 85.323 126.372C85.4684 126.338 85.6248 126.257 85.7923 126.131C85.9757 125.978 86.1054 125.783 86.1813 125.546C86.3498 125.704 86.4766 125.872 86.562 126.049C86.6632 126.2 86.7333 126.359 86.7722 126.525C86.8841 127.003 86.7609 127.459 86.4025 127.894C86.0442 128.328 85.5327 128.623 84.868 128.779ZM76.3844 128.761C76.9403 128.609 77.4806 128.297 78.0051 127.823C78.5247 127.329 78.9657 126.733 79.328 126.034C79.6903 125.336 79.9396 124.576 80.076 123.756C80.2125 122.935 80.1937 122.107 80.0199 121.271C79.5373 121.362 79.0205 121.494 78.4694 121.667C77.9342 121.814 77.4087 122.003 76.893 122.233C76.398 122.459 75.9648 122.714 75.5931 122.998C74.8145 123.509 74.252 124.101 73.9056 124.774C73.5592 125.446 73.4785 126.177 73.6634 126.967C73.8045 127.569 74.0996 128.081 74.5487 128.501C74.9929 128.901 75.6048 128.988 76.3844 128.761ZM92.0751 106.683C93.0237 106.068 93.9357 105.769 94.8113 105.786C95.6752 105.785 96.4862 105.996 97.2442 106.42C98.0022 106.843 98.6992 107.408 99.3353 108.115C99.9777 108.791 100.543 109.506 101.03 110.257C102.632 112.727 103.364 114.973 103.227 116.995C103.107 119.006 102.161 120.585 100.389 121.735C99.4939 122.315 98.6171 122.63 97.7585 122.678C96.9178 122.715 96.16 122.507 95.4852 122.055L97.3311 124.9C97.5749 125.276 97.8741 125.718 98.2287 126.225C98.6011 126.721 98.9826 127.211 99.3729 127.695C99.7928 128.186 100.169 128.59 100.503 128.908C100.465 129.085 100.361 129.317 100.192 129.605C100.052 129.899 99.8124 130.157 99.4723 130.377C99.0607 130.644 98.6393 130.74 98.2083 130.663C97.7889 130.605 97.4515 130.378 97.1961 129.985L87.2448 114.584C86.9197 114.083 86.6397 113.769 86.4046 113.641C86.1579 113.496 85.8913 113.517 85.605 113.702C85.5155 113.76 85.4107 113.854 85.2908 113.982C85.1708 114.111 85.1241 114.294 85.1507 114.531C84.9389 114.44 84.7538 114.331 84.5957 114.204C84.4375 114.078 84.3178 113.952 84.2365 113.827C83.9811 113.433 83.9332 113.007 84.0928 112.547C84.2525 112.088 84.5829 111.695 85.084 111.37C85.9073 110.836 86.7127 110.784 87.5002 111.214C88.294 111.615 89.0624 112.388 89.8054 113.533L91.2682 115.788L90.7994 116.36C90.3031 115.359 89.9454 114.396 89.7263 113.47C89.5135 112.515 89.4477 111.629 89.529 110.814C89.6165 109.969 89.8659 109.197 90.2771 108.498C90.6882 107.799 91.2876 107.194 92.0751 106.683ZM92.3443 108.568C91.7178 108.974 91.2759 109.528 91.0186 110.229C90.7792 110.918 90.7042 111.704 90.7937 112.587C90.8894 113.44 91.1206 114.346 91.4873 115.303C91.8602 116.231 92.3428 117.151 92.9348 118.064C93.3528 118.708 93.7922 119.288 94.2532 119.802C94.7026 120.299 95.174 120.693 95.6674 120.983C96.1671 121.244 96.6892 121.363 97.2339 121.34C97.7786 121.317 98.3462 121.114 98.9369 120.731C100.154 119.942 100.718 118.813 100.63 117.344C100.531 115.858 99.796 114.058 98.4261 111.947C98.0082 111.302 97.5661 110.699 97.0998 110.137C96.6397 109.545 96.1546 109.072 95.6442 108.716C95.1402 108.331 94.6163 108.112 94.0726 108.057C93.5289 108.003 92.9528 108.173 92.3443 108.568ZM104.388 95.3393C105.072 94.439 105.829 93.8484 106.658 93.5675C107.471 93.2738 108.306 93.1979 109.162 93.3396C110.019 93.4814 110.866 93.7767 111.704 94.2255C112.538 94.6445 113.311 95.125 114.025 95.6669C116.369 97.4477 117.819 99.3125 118.375 101.262C118.943 103.194 118.589 105.001 117.311 106.682C116.666 107.532 115.948 108.125 115.157 108.461C114.378 108.781 113.595 108.842 112.807 108.645L115.508 110.697C115.864 110.968 116.296 111.282 116.801 111.639C117.32 111.98 117.845 112.311 118.376 112.635C118.937 112.954 119.428 113.206 119.85 113.392C119.874 113.572 119.856 113.826 119.794 114.154C119.762 114.478 119.624 114.801 119.378 115.124C119.082 115.515 118.718 115.747 118.286 115.821C117.872 115.908 117.478 115.81 117.104 115.526L102.522 104.41C102.046 104.048 101.676 103.848 101.412 103.808C101.131 103.755 100.887 103.864 100.68 104.136C100.616 104.221 100.549 104.344 100.48 104.506C100.41 104.668 100.428 104.856 100.534 105.07C100.303 105.055 100.092 105.016 99.9009 104.951C99.7093 104.885 99.554 104.808 99.4351 104.717C99.0614 104.433 98.8717 104.048 98.8661 103.562C98.8606 103.075 99.0384 102.594 99.3997 102.119C99.9933 101.337 100.733 101.015 101.62 101.153C102.503 101.261 103.488 101.728 104.575 102.553L106.715 104.179L106.468 104.875C105.662 104.102 104.999 103.318 104.479 102.521C103.955 101.694 103.593 100.883 103.393 100.089C103.189 99.2638 103.162 98.453 103.312 97.656C103.462 96.859 103.821 96.0868 104.388 95.3393ZM105.281 97.0216C104.829 97.6162 104.601 98.2868 104.596 99.0335C104.605 99.7631 104.8 100.528 105.184 101.328C105.563 102.099 106.088 102.872 106.757 103.648C107.422 104.395 108.188 105.097 109.055 105.755C109.666 106.22 110.276 106.616 110.884 106.944C111.475 107.259 112.052 107.47 112.615 107.575C113.173 107.651 113.705 107.586 114.21 107.38C114.714 107.174 115.18 106.791 115.605 106.23C116.483 105.075 116.631 103.822 116.051 102.47C115.453 101.105 114.152 99.6614 112.147 98.1387C111.536 97.6742 110.915 97.2565 110.286 96.8857C109.653 96.4851 109.036 96.204 108.435 96.0424C107.831 95.851 107.263 95.8219 106.733 95.9552C106.204 96.0885 105.719 96.444 105.281 97.0216ZM129.524 82.0205C129.235 82.9362 128.699 83.5388 127.914 83.8284C127.136 84.0976 126.034 84.0078 124.61 83.5591L122.168 82.7898L122.605 82.2563C123.703 82.9601 124.624 83.7984 125.369 84.7711C126.093 85.7375 126.583 86.7752 126.837 87.8843C127.071 88.987 127.012 90.0978 126.66 91.2169C126.288 92.3971 125.677 93.2337 124.829 93.7267C123.96 94.2134 122.986 94.2868 121.907 93.9471C121.033 93.6714 120.34 93.2072 119.83 92.5544C119.326 91.8812 118.972 91.0875 118.768 90.1733C118.564 89.2591 118.478 88.2923 118.508 87.273C118.553 86.3479 118.673 85.435 118.868 84.5344C119.062 83.6339 119.281 82.8307 119.526 82.125L118.763 81.8846C117.013 81.3332 115.614 81.1944 114.566 81.4681C113.498 81.7354 112.755 82.5303 112.339 83.8529C112.191 84.3209 112.115 84.8113 112.11 85.3242C112.111 85.8167 112.247 86.2732 112.517 86.6939C112.773 87.0877 113.217 87.384 113.847 87.5827C114.234 87.7045 114.68 87.7444 115.185 87.7023C115.677 87.6335 116.088 87.3939 116.418 86.9836C116.598 87.264 116.694 87.5627 116.706 87.8796C116.698 88.1901 116.646 88.498 116.55 88.8032C116.312 89.556 115.849 90.0697 115.158 90.3443C114.454 90.5921 113.756 90.607 113.064 90.389C111.863 90.0107 111.118 89.183 110.827 87.9059C110.536 86.6288 110.679 85.0746 111.256 83.2433C111.929 81.1068 112.962 79.71 114.354 79.0528C115.733 78.3688 117.551 78.3826 119.81 79.0942L125.731 80.9598C126.809 81.2996 127.461 81.1134 127.685 80.4012C127.73 80.2588 127.741 80.0832 127.717 79.8744C127.679 79.6389 127.578 79.428 127.413 79.2419C127.635 79.1775 127.843 79.1538 128.039 79.1708C128.221 79.161 128.394 79.1818 128.557 79.2331C129.025 79.3805 129.354 79.7192 129.545 80.2491C129.736 80.7789 129.729 81.3694 129.524 82.0205ZM125.181 89.3083C125.334 88.7525 125.34 88.1283 125.2 87.4357C125.04 86.7366 124.753 86.0532 124.337 85.3853C123.921 84.7175 123.395 84.1156 122.758 83.5796C122.122 83.0435 121.4 82.6372 120.593 82.3604C120.425 82.8219 120.275 83.3338 120.142 83.896C119.996 84.4315 119.89 84.9797 119.825 85.5408C119.767 86.0815 119.765 86.5842 119.82 87.0489C119.862 87.9793 120.084 88.765 120.486 89.4061C120.888 90.0472 121.476 90.4895 122.249 90.7332C122.839 90.9191 123.43 90.9262 124.021 90.7545C124.591 90.5764 124.978 90.0943 125.181 89.3083ZM131.573 68.0393C131.616 69.1478 131.427 70.0731 131.007 70.8151C130.566 71.5367 129.969 72.1147 129.217 72.5493C128.465 72.9839 127.634 73.3041 126.724 73.51C125.793 73.7166 124.869 73.8376 123.952 73.8729C121.031 73.9854 118.728 73.4976 117.042 72.4097C115.356 71.3004 114.471 69.6586 114.387 67.4842C114.345 66.397 114.523 65.4828 114.922 64.7416C115.319 63.9791 115.896 63.4338 116.652 63.1058L112.943 63.2487C112.133 63.2799 111.324 63.343 110.516 63.4382C109.687 63.5341 108.936 63.6912 108.261 63.9093C108.128 63.7863 107.982 63.5892 107.822 63.3178C107.64 63.0259 107.541 62.6774 107.525 62.2724C107.506 61.7821 107.629 61.3717 107.894 61.0413C108.159 60.7109 108.547 60.5358 109.059 60.5161L127.223 59.8486C127.798 59.8265 128.221 59.7248 128.492 59.5436C128.74 59.3419 128.858 59.0811 128.846 58.7614C128.842 58.6548 128.815 58.517 128.766 58.3481C128.695 58.1588 128.561 58.0251 128.366 57.9472C128.531 57.7914 128.709 57.6885 128.899 57.6385C129.088 57.5672 129.258 57.5286 129.407 57.5229C129.897 57.504 130.299 57.6913 130.613 58.0849C130.906 58.4792 131.064 58.9855 131.088 59.6037C131.125 60.563 130.769 61.2919 130.019 61.7905C129.248 62.2685 128.169 62.5342 126.784 62.5876L124.194 62.6873L123.943 61.9925C125.056 62.0777 126.067 62.2736 126.976 62.5802C127.883 62.8655 128.678 63.2619 129.359 63.7693C130.04 64.2555 130.575 64.854 130.965 65.5649C131.334 66.2765 131.537 67.1013 131.573 68.0393ZM129.816 67.3064C129.787 66.5603 129.538 65.9081 129.068 65.3497C128.576 64.7709 127.928 64.3048 127.124 63.9515C126.32 63.5768 125.403 63.3133 124.372 63.1608C123.341 62.987 122.26 62.9219 121.13 62.9654C120.491 62.99 119.864 63.0675 119.25 63.1979C118.614 63.3292 118.046 63.5325 117.544 63.808C117.042 64.0835 116.651 64.4722 116.372 64.974C116.092 65.4758 115.967 66.1104 115.997 66.8778C116.049 68.2422 116.74 69.2617 118.068 69.9364C119.374 70.5906 121.264 70.8701 123.737 70.7749C124.547 70.7437 125.323 70.6818 126.067 70.5891C126.81 70.4751 127.475 70.2893 128.063 70.0318C128.63 69.7752 129.075 69.4271 129.4 68.9876C129.703 68.549 129.842 67.9886 129.816 67.3064ZM127.641 43.7584C128.517 45.9352 128.51 47.9159 127.619 49.7007C126.7 51.4736 124.994 52.8621 122.5 53.8662C119.987 54.8782 117.785 55.0635 115.894 54.4222C113.995 53.7611 112.607 52.3421 111.73 50.1653C110.854 47.9885 110.875 46.0136 111.794 44.2407C112.713 42.4678 114.429 41.0753 116.942 40.0633C119.436 39.0592 121.628 38.8778 123.519 39.5192C125.39 40.1685 126.764 41.5816 127.641 43.7584ZM126.513 44.2126C125.987 42.9065 125.005 42.1521 123.566 41.9495C122.12 41.727 120.298 42.058 118.102 42.9426C115.885 43.8351 114.333 44.8627 113.444 46.0255C112.528 47.1765 112.332 48.405 112.858 49.7111C113.392 51.0369 114.392 51.8071 115.859 52.0216C117.297 52.2243 119.125 51.8794 121.341 50.9869C123.537 50.1023 125.084 49.0886 125.981 47.9456C126.869 46.7828 127.047 45.5385 126.513 44.2126ZM116.72 24.4005C118.267 26.193 118.931 28.0719 118.711 30.0372C118.478 31.9864 117.311 33.8671 115.212 35.6794C113.193 37.4219 111.163 38.2864 109.122 38.2728C107.051 38.2569 105.207 37.3124 103.59 35.4392C102.405 34.0666 101.797 32.7741 101.765 31.5617C101.733 30.3493 102.161 29.3597 103.049 28.593C103.63 28.0911 104.238 27.8483 104.872 27.8646C105.506 27.8809 106.046 28.1474 106.492 28.6641C106.688 28.8902 106.849 29.1592 106.978 29.4712C107.092 29.7669 107.116 30.0561 107.05 30.3386C106.698 30.1918 106.329 30.1723 105.943 30.2801C105.557 30.3879 105.17 30.609 104.782 30.9436C104.314 31.3479 104.025 31.7805 103.916 32.2413C103.776 32.7 103.781 33.1466 103.931 33.581C104.08 34.0155 104.336 34.4427 104.699 34.8626C105.535 35.8315 106.678 36.2405 108.126 36.0896C109.543 35.9365 111.116 35.1141 112.844 33.6225C114.136 32.5073 115.031 31.4385 115.53 30.4163C115.998 29.3919 116.152 28.4276 115.992 27.5234C115.801 26.617 115.385 25.7924 114.744 25.0496C114.242 24.4683 113.692 24.0271 113.094 23.7261C112.482 23.4089 111.844 23.2411 111.18 23.2226C110.516 23.2041 109.861 23.3603 109.217 23.6911C109.142 23.4739 109.174 23.2493 109.312 23.0175C109.45 22.7856 109.777 22.5449 110.295 22.2955C111.388 21.8312 112.495 21.7914 113.616 22.1762C114.737 22.561 115.772 23.3024 116.72 24.4005ZM94.3119 29.0075C94.7341 29.2972 95.0009 29.7001 95.1124 30.2164C95.2063 30.7206 95.1084 31.1838 94.8187 31.606C94.517 32.0458 94.114 32.3127 93.6098 32.4065C93.088 32.4883 92.616 32.3844 92.1938 32.0948C91.7716 31.8051 91.5136 31.4082 91.4197 30.904C91.3258 30.3997 91.4297 29.9277 91.7314 29.4879C92.0211 29.0658 92.418 28.8077 92.9223 28.7138C93.4265 28.62 93.8897 28.7178 94.3119 29.0075ZM101.672 15.5075C102.022 14.9974 102.346 14.4691 102.643 13.9227C102.94 13.3764 103.163 12.8438 103.312 12.3251C103.49 12.292 103.745 12.2983 104.075 12.3441C104.401 12.3603 104.73 12.483 105.065 12.7124C105.452 12.9779 105.699 13.3155 105.806 13.7252C105.883 14.1405 105.783 14.5504 105.505 14.955L99.1411 24.2877C98.7791 24.8154 98.4494 25.3524 98.1522 25.8988C97.8374 26.4331 97.6143 26.9656 97.483 27.4964C97.2874 27.5175 97.0331 27.5111 96.7199 27.4774C96.4067 27.4436 96.083 27.3121 95.7488 27.0828C95.3618 26.8173 95.1236 26.4857 95.0342 26.088C94.9152 25.6959 95.0005 25.2888 95.2901 24.8666L101.672 15.5075ZM83.5413 2.94052C84.4497 3.25084 85.0393 3.80166 85.3101 4.59299C85.5606 5.37743 85.4445 6.47623 84.9618 7.88939L84.1343 10.312L83.6114 9.86282C84.3413 8.78206 85.2014 7.88105 86.1917 7.15978C87.1751 6.4587 88.2242 5.99423 89.3391 5.76636C90.447 5.55869 91.5562 5.64449 92.6665 6.02377C93.8374 6.42374 94.6592 7.05387 95.1318 7.91416C95.5975 8.79465 95.6476 9.76987 95.2821 10.8398C94.9856 11.7079 94.5049 12.3891 93.8401 12.8834C93.1551 13.3708 92.3532 13.7056 91.4344 13.8877C90.5155 14.0698 89.5469 14.1334 88.5286 14.0786C87.6049 14.0111 86.6952 13.8694 85.7995 13.6536C84.9038 13.4379 84.1061 13.1992 83.4065 12.9376L83.1479 13.6947C82.5548 15.4309 82.3826 16.8261 82.6311 17.8804C82.8728 18.9548 83.6497 19.7162 84.9619 20.1644C85.4262 20.323 85.9147 20.411 86.4273 20.4283C86.9197 20.4387 87.3794 20.3139 87.8063 20.054C88.2062 19.8073 88.513 19.3711 88.7268 18.7452C88.8578 18.3617 88.9083 17.9168 88.8784 17.4106C88.8213 16.9177 88.5916 16.5011 88.1894 16.1608C88.474 15.9875 88.7749 15.8986 89.092 15.8942C89.4022 15.91 89.7087 15.9696 90.0115 16.0731C90.7585 16.3282 91.2609 16.8042 91.5189 17.501C91.7498 18.2111 91.748 18.9093 91.5135 19.5957C91.1066 20.7868 90.2613 21.5125 88.9776 21.7728C87.6938 22.0332 86.1435 21.853 84.3266 21.2324C82.2068 20.5083 80.8351 19.4423 80.2114 18.0345C79.5606 16.6399 79.6179 14.8222 80.3834 12.5813L82.3901 6.70658C82.7556 5.63662 82.585 4.98095 81.8784 4.73959C81.7371 4.69132 81.5618 4.67653 81.3526 4.69522C81.1162 4.7272 80.903 4.82344 80.7129 4.98395C80.6538 4.76088 80.6351 4.5516 80.6568 4.35612C80.6514 4.17393 80.6763 4.00208 80.7315 3.84057C80.8901 3.37625 81.2365 3.05499 81.7708 2.8768C82.3051 2.6986 82.8953 2.71984 83.5413 2.94052ZM90.7231 7.45647C90.1711 7.29047 89.5472 7.26898 88.8514 7.392C88.1487 7.53521 87.4586 7.8067 86.781 8.20646C86.1034 8.60622 85.489 9.11777 84.938 9.7411C84.3869 10.3644 83.9633 11.0764 83.6673 11.877C84.1247 12.0558 84.6329 12.2181 85.1918 12.3639C85.7235 12.5231 86.2691 12.6418 86.8285 12.7201C87.3677 12.7916 87.8702 12.8054 88.336 12.7617C89.2671 12.7416 90.058 12.5383 90.7085 12.1518C91.359 11.7654 91.8153 11.1886 92.0773 10.4214C92.2773 9.83597 92.2986 9.24582 92.1411 8.65097C91.9767 8.07631 91.504 7.67814 90.7231 7.45647ZM59.8053 0.243084C60.3342 0.174406 60.8018 0.296539 61.2082 0.609485C61.6145 0.92243 61.8507 1.33277 61.9166 1.84051C61.9853 2.3694 61.8631 2.83702 61.5502 3.24337C61.2373 3.64972 60.8163 3.88723 60.2874 3.95591C59.7797 4.02184 59.3227 3.89834 58.9163 3.58539C58.51 3.27245 58.2724 2.85153 58.2038 2.32263C58.1378 1.8149 58.2613 1.35785 58.5743 0.951505C58.8872 0.545156 59.2976 0.309016 59.8053 0.243084ZM31.5125 10.1854C31.926 9.92127 32.3423 9.81993 32.7612 9.88139C33.1917 9.96082 33.539 10.2073 33.8031 10.6208L44.8206 27.8089L42.2632 29.2147L32.7617 14.3997C32.4286 13.8784 32.0686 13.3742 31.6816 12.8873C31.2946 12.4004 30.8914 11.9871 30.472 11.6475C30.5109 11.4707 30.6161 11.239 30.7874 10.9524C30.9292 10.6593 31.1709 10.4036 31.5125 10.1854ZM48.5797 23.0533C48.8055 23.0104 49.0502 23.0566 49.3138 23.192C49.571 23.3568 49.8127 23.5568 50.0389 23.792C50.2471 24.0387 50.3727 24.2749 50.4156 24.5007C50.47 24.7444 50.4073 24.9236 50.2275 25.0385L37.5258 33.1521C37.346 33.267 37.166 33.2427 36.9857 33.0794C36.799 32.9456 36.6464 32.7266 36.5281 32.4225C36.3918 32.1298 36.3119 31.8265 36.2885 31.5123C36.2585 31.2277 36.3105 30.992 36.4443 30.8052C37.123 30.5996 37.8646 30.3537 38.6691 30.0676C39.4671 29.811 40.2659 29.5159 41.0654 29.1824C41.865 28.8488 42.6063 28.4639 43.2895 28.0275C43.9547 27.6026 44.5977 27.1032 45.2184 26.5295C45.8392 25.9557 46.4338 25.3608 47.0021 24.7446C47.5639 24.1579 48.0898 23.5941 48.5797 23.0533ZM27.1026 37.4221C26.8067 37.7864 26.4419 37.9985 26.0083 38.0586C25.5747 38.1186 25.1427 37.9738 24.7122 37.624L15.7756 30.4051C15.312 30.0285 14.9405 29.8091 14.6611 29.747C14.3848 29.715 14.1525 29.8149 13.9641 30.0467C13.8834 30.146 13.8058 30.2754 13.7313 30.4347C13.6734 30.6076 13.6853 30.7959 13.767 30.9997C13.3542 30.9667 13.007 30.8358 12.7255 30.6071C12.3612 30.3111 12.1775 29.9283 12.1744 29.4585C12.1578 29.0052 12.3513 28.5302 12.7548 28.0335C13.2929 27.3712 13.9252 27.0328 14.6516 27.0182C15.3811 27.0337 16.193 27.4046 17.0871 28.131L18.6518 29.4022L18.8459 30.1783C17.9331 29.2719 17.2739 28.324 16.8682 27.3348C16.479 26.3589 16.3481 25.3867 16.4753 24.4181C16.6057 23.4796 17.0138 22.588 17.6999 21.7436C18.776 20.419 19.9655 19.7499 21.2683 19.7364C22.5743 19.7528 24.171 20.5278 26.0586 22.0613L30.9267 26.0161C31.3572 26.3659 31.841 26.7177 32.378 27.0716C32.9317 27.4389 33.461 27.7178 33.966 27.9081C33.9774 28.1648 33.9521 28.4328 33.89 28.7122C33.831 29.0216 33.6805 29.3253 33.4384 29.6234C33.129 30.0042 32.7725 30.2231 32.3689 30.28C31.9519 30.3535 31.5447 30.2288 31.1473 29.906L24.5407 24.5388C23.5307 23.7182 22.6422 23.1201 21.8754 22.7445C21.1252 22.3824 20.4665 22.2458 19.8994 22.3349C19.3354 22.4539 18.8181 22.8032 18.3472 23.3827C18.0244 23.7801 17.8159 24.2566 17.7218 24.8123C17.6276 25.368 17.6846 25.9915 17.8926 26.6828C18.1172 27.3875 18.5281 28.1335 19.1252 28.921C19.7089 29.725 20.5306 30.5575 21.5903 31.4184C22.5507 32.1986 23.3522 32.836 23.9948 33.3306C24.624 33.8418 25.144 34.2505 25.5549 34.5568C25.9823 34.8765 26.3553 35.1109 26.6741 35.2599C26.9959 35.4389 27.3229 35.5946 27.6551 35.7271C27.6737 35.9071 27.6536 36.1518 27.5946 36.4613C27.5356 36.7707 27.3716 37.091 27.1026 37.4221ZM6.45497 38.0754C6.60648 37.6765 6.88244 37.3705 7.28285 37.1575C7.70321 36.9521 8.16267 36.944 8.66125 37.1334L19.3407 41.1901C19.8991 41.4022 20.3145 41.4802 20.5869 41.4239C20.8717 41.3952 21.0709 41.2312 21.1845 40.9321C21.2224 40.8323 21.2417 40.6914 21.2425 40.5091C21.2632 40.3344 21.2028 40.1631 21.0612 39.9952C21.4712 39.8771 21.8457 39.8824 22.1847 40.0112C22.6434 40.1855 22.9517 40.4851 23.1097 40.9103C23.2601 41.3554 23.2179 41.887 22.9831 42.5053C22.6801 43.303 22.1598 43.8014 21.4224 44.0005C20.6973 44.2271 19.7602 44.1108 18.6111 43.6515L16.8761 42.9924L17.0723 42.6561C18.6841 43.5194 19.7786 44.4829 20.3559 45.5466C20.9455 46.6377 21.0206 47.7616 20.5812 48.9183C20.1873 49.9554 19.5861 50.6969 18.7778 51.1429C17.9893 51.5965 17.0865 51.6301 16.0694 51.2437C15.3914 50.9861 14.9049 50.5846 14.6101 50.039C14.3153 49.4934 14.2526 48.9676 14.4221 48.4614C14.6143 47.8954 14.8992 47.5358 15.2769 47.3826C15.5374 47.7783 15.7958 48.059 16.0523 48.2249C16.3287 48.3984 16.6365 48.5495 16.9755 48.6783C17.5937 48.9131 18.0955 48.944 18.4807 48.7708C18.8859 48.6052 19.1908 48.2532 19.3953 47.7148C19.5923 47.1962 19.5386 46.6167 19.2342 45.9762C18.9497 45.3433 18.342 44.6903 17.4111 44.0172C16.5 43.3516 15.1969 42.6969 13.5018 42.0529C12.365 41.6211 11.4177 41.2613 10.6599 40.9734C9.91444 40.7131 9.28863 40.4982 8.78248 40.3287C8.29627 40.1668 7.87229 40.0514 7.51054 39.9825C7.16872 39.9211 6.82552 39.8934 6.48092 39.8994C6.40671 39.7343 6.35284 39.4857 6.3193 39.1534C6.27818 38.8411 6.3234 38.4818 6.45497 38.0754ZM1.0107 55.8775C1.04324 55.2383 1.22526 54.8097 1.55678 54.5916C1.90852 54.3959 2.3294 54.3105 2.81944 54.3355L23.241 55.375C23.7534 55.3798 24.14 55.549 24.4007 55.8826C24.6614 56.2163 24.7793 56.6282 24.7543 57.1182C24.7326 57.5443 24.6295 57.8915 24.445 58.1598C24.2817 58.4292 24.1329 58.6246 23.9986 58.7459C23.4512 58.5899 22.9442 58.4786 22.4776 58.4121C22.011 58.3457 21.5658 58.2803 21.1418 58.216C20.7381 58.1741 20.3125 58.1417 19.8651 58.119C19.439 58.0973 18.982 58.0526 18.4942 57.9851L12.5195 57.6489L12.785 57.4702C13.8351 57.8227 14.729 58.3061 15.4667 58.9204C16.2246 59.5571 16.8056 60.3129 17.2097 61.1879C17.6137 62.0629 17.7881 63.0437 17.7328 64.1303C17.6644 65.4726 17.2726 66.4566 16.5571 67.0824C15.8417 67.7081 14.9514 67.9939 13.8861 67.9397C13.0126 67.8952 12.2356 67.6314 11.5553 67.1482C10.8952 66.6873 10.3269 66.103 9.85025 65.3952C9.37253 64.7087 8.9721 63.9727 8.64895 63.1873C8.52832 63.4588 8.33529 63.684 8.06986 63.8627C7.82465 64.0638 7.53683 64.2628 7.2064 64.4596L4.11606 66.0005C3.69932 66.2142 3.39128 66.3908 3.19194 66.5302C3.01282 66.6919 2.91566 66.922 2.90048 67.2202C2.89505 67.3268 2.90931 67.4663 2.94325 67.639C2.99849 67.8127 3.09688 67.9779 3.23843 68.1346C3.0817 68.2761 2.91648 68.3745 2.74278 68.4298C2.56908 68.485 2.39701 68.5083 2.22656 68.4996C1.69392 68.4725 1.25897 68.2047 0.921718 67.6963C0.604687 67.2102 0.461356 66.6689 0.491724 66.0723C0.521008 65.497 0.718026 64.9837 1.08278 64.5323C1.44753 64.081 1.9672 63.7336 2.64178 63.4903L8.07868 61.1717C7.87794 60.4993 7.69797 59.8386 7.53875 59.1897C7.39976 58.5631 7.2799 57.9803 7.17918 57.4411C6.26303 57.3945 5.49603 57.3554 4.87816 57.324C4.2816 57.2936 3.79103 57.2793 3.40644 57.2811C3.04207 57.3053 2.71977 57.3423 2.43954 57.3921C2.17954 57.4643 1.88703 57.5455 1.56202 57.6358C1.42156 57.4578 1.29446 57.227 1.18072 56.9435C1.0446 56.6803 0.987923 56.3249 1.0107 55.8775ZM8.39361 57.5029C8.60589 58.3682 8.86079 59.2356 9.1583 60.1052C9.47603 60.9972 9.8519 61.796 10.2859 62.5016C10.7189 63.2286 11.2233 63.8096 11.7993 64.2448C12.3954 64.7024 13.0877 64.9512 13.876 64.9913C14.6643 65.0315 15.2286 64.8573 15.5687 64.4687C15.9292 64.1026 16.1246 63.6212 16.1549 63.0247C16.2059 62.0233 15.8999 61.1106 15.2369 60.2865C14.5942 59.4847 13.6765 58.8399 12.4837 58.352C11.3123 57.8651 9.94893 57.5821 8.39361 57.5029ZM2.52022 82.4587C1.88859 80.2208 2.08251 78.2375 3.10198 76.509C4.12724 74.8009 5.9744 73.5702 8.64346 72.8169C11.2099 72.0926 13.4118 72.1583 15.2494 73.014C17.1074 73.8639 18.3783 75.5002 19.0621 77.9229C19.375 79.0316 19.4787 80.0664 19.373 81.0272C19.2879 81.9822 18.9761 82.8017 18.4376 83.4857C17.9255 84.1844 17.1767 84.6728 16.1912 84.951C14.6513 85.3856 13.3043 85.0897 12.1501 84.0633C11.0223 83.0516 10.157 81.4781 9.55434 79.3429C9.31676 78.5011 9.11287 77.6609 8.94267 76.8223C8.7988 75.9984 8.69757 75.1292 8.63897 74.2147L9.70345 73.9808C9.76619 74.5172 9.85658 75.1124 9.97463 75.7662C10.0927 76.4201 10.237 77.0887 10.4077 77.772C10.599 78.4495 10.8328 79.0818 11.1093 79.6687C11.4064 80.2499 11.7579 80.7492 12.1638 81.1666C12.5903 81.5783 13.0979 81.8451 13.6865 81.9671C14.2809 82.1097 14.9682 82.0709 15.7484 81.8507C16.5286 81.6305 17.0834 81.3187 17.4129 80.9154C17.7424 80.512 17.9256 80.0614 17.9623 79.5633C18.0254 79.08 17.9903 78.6022 17.8571 78.13C17.4862 76.816 16.6026 75.9238 15.2064 75.4534C13.8364 74.9977 12.0427 75.0828 9.82536 75.7086C8.16233 76.178 6.89891 76.7673 6.0351 77.4766C5.19182 78.1801 4.66181 78.9726 4.44506 79.8539C4.25463 80.75 4.2956 81.6805 4.56795 82.6455C4.88086 83.7542 5.37906 84.6554 6.06254 85.3492C6.76655 86.0371 7.57264 86.4192 8.48081 86.4954C8.45663 86.7239 8.34321 86.9111 8.14054 87.0569C7.93788 87.2028 7.55093 87.2455 6.9797 87.1851C5.92517 87.0615 5.01245 86.5766 4.24155 85.7301C3.47065 84.8837 2.89688 83.7932 2.52022 82.4587ZM4.45047 104.349C3.91735 103.577 3.49625 102.779 3.18718 101.955C2.8781 101.132 2.77676 100.346 2.88313 99.5989C2.98407 98.8812 3.38571 98.2801 4.08805 97.7954C4.59725 97.444 5.13648 97.3052 5.70575 97.3789C6.25746 97.4648 6.72112 97.7798 7.09673 98.3242C7.4481 98.8334 7.5533 99.3051 7.41232 99.7393C7.08466 99.6025 6.76157 99.5663 6.44306 99.6306C6.13665 99.7124 5.88688 99.82 5.69374 99.9533C5.23721 100.268 4.94724 100.637 4.82382 101.059C4.68284 101.493 4.66933 101.943 4.78331 102.409C4.89729 102.874 5.09362 103.309 5.37229 103.713C6.34161 105.118 7.60352 105.763 9.15801 105.65C10.7071 105.566 12.5 104.821 14.5368 103.415C14.8353 103.209 15.1837 102.982 15.5821 102.733C16.0102 102.489 16.4383 102.246 16.8664 102.002C17.2945 101.759 17.6874 101.539 18.0453 101.344L18.7011 101.28C16.9821 102.207 15.3638 102.585 13.8461 102.415C12.3582 102.249 11.1053 101.429 10.0875 99.9539C9.1788 98.637 8.89201 97.3575 9.22716 96.1153C9.59199 94.8786 10.784 93.5636 12.8033 92.1702L17.8338 88.6988C18.3079 88.3717 18.7901 88 19.2805 87.5839C19.7709 87.1677 20.1784 86.744 20.5028 86.3127C20.7524 86.3738 21.0025 86.4733 21.2532 86.6114C21.5337 86.7548 21.7829 86.9845 22.001 87.3006C22.2797 87.7044 22.3897 88.108 22.3311 88.5114C22.2846 88.9323 22.0506 89.2881 21.6292 89.5789L14.755 94.3225C13.2099 95.3887 12.1837 96.3431 11.6764 97.1856C11.1813 98.0457 11.2306 98.9059 11.8243 99.7663C12.1514 100.24 12.5745 100.609 13.0936 100.873C13.6248 101.155 14.2513 101.293 14.9731 101.287C15.7247 101.287 16.5621 101.111 17.4855 100.758C18.409 100.406 19.4238 99.8487 20.53 99.0853C21.5308 98.3947 22.35 97.8164 22.9875 97.3506C23.6372 96.9023 24.1579 96.53 24.5496 96.2338C24.9589 95.9254 25.2798 95.6392 25.5123 95.3751C25.7744 95.1164 26.0157 94.8463 26.236 94.5646C26.4141 94.5973 26.6433 94.6853 26.9237 94.8288C27.2042 94.9722 27.4655 95.2195 27.7079 95.5707C27.9744 95.957 28.0757 96.3666 28.0116 96.7996C27.9475 97.2326 27.6872 97.6067 27.2307 97.9217L16.2133 105.563C14.3697 106.835 12.7185 107.56 11.2597 107.737C9.79541 107.944 8.50789 107.731 7.39708 107.098C6.26871 106.477 5.28651 105.561 4.45047 104.349ZM31.6832 122.708C31.2271 122.431 30.938 122.044 30.8159 121.546C30.6938 121.048 30.7654 120.58 31.0309 120.142C31.3073 119.686 31.6946 119.397 32.1928 119.275C32.6909 119.153 33.168 119.23 33.6241 119.506C34.0619 119.772 34.3419 120.153 34.464 120.652C34.5862 121.15 34.509 121.627 34.2325 122.083C33.9671 122.521 33.5853 122.801 33.0872 122.923C32.589 123.045 32.121 122.973 31.6832 122.708Z" fill="#F1C953"/>
</svg>
